<mxfile host="65bd71144e">
    <diagram id="wOmATHTsT4EsXPBgeb2d" name="А0">
        <mxGraphModel dx="1204" dy="2444" grid="1" gridSize="10" guides="1" tooltips="1" connect="1" arrows="1" fold="1" page="1" pageScale="1" pageWidth="1169" pageHeight="827" math="1" shadow="0">
            <root>
                <mxCell id="0"/>
                <mxCell id="1" parent="0"/>
                <mxCell id="2" value="Осуществление закупки товара ТК Альфа" style="whiteSpace=wrap;html=1;" parent="1" vertex="1">
                    <mxGeometry x="200" y="-1120" width="220" height="160" as="geometry"/>
                </mxCell>
                <mxCell id="3" value="" style="endArrow=classic;html=1;entryX=0.5;entryY=0;entryDx=0;entryDy=0;" parent="1" edge="1">
                    <mxGeometry width="50" height="50" relative="1" as="geometry">
                        <mxPoint x="240" y="-1220" as="sourcePoint"/>
                        <mxPoint x="240" y="-1120" as="targetPoint"/>
                    </mxGeometry>
                </mxCell>
                <mxCell id="17" value="Законодательные акты и &lt;br&gt;нормативные документы" style="edgeLabel;html=1;align=center;verticalAlign=middle;resizable=0;points=[];" parent="3" vertex="1" connectable="0">
                    <mxGeometry x="0.5556" y="3" relative="1" as="geometry">
                        <mxPoint x="3" y="-40" as="offset"/>
                    </mxGeometry>
                </mxCell>
                <mxCell id="13" value="" style="endArrow=classic;html=1;" parent="1" edge="1">
                    <mxGeometry width="50" height="50" relative="1" as="geometry">
                        <mxPoint x="40" y="-1080" as="sourcePoint"/>
                        <mxPoint x="200" y="-1080" as="targetPoint"/>
                    </mxGeometry>
                </mxCell>
                <mxCell id="14" value="Заказ покупателя" style="edgeLabel;html=1;align=center;verticalAlign=middle;resizable=0;points=[];" parent="13" vertex="1" connectable="0">
                    <mxGeometry x="-0.3" relative="1" as="geometry">
                        <mxPoint as="offset"/>
                    </mxGeometry>
                </mxCell>
                <mxCell id="15" value="" style="endArrow=classic;html=1;" parent="1" edge="1">
                    <mxGeometry width="50" height="50" relative="1" as="geometry">
                        <mxPoint x="40" y="-1110" as="sourcePoint"/>
                        <mxPoint x="200" y="-1110" as="targetPoint"/>
                    </mxGeometry>
                </mxCell>
                <mxCell id="16" value="Статистика продаж" style="edgeLabel;html=1;align=center;verticalAlign=middle;resizable=0;points=[];" parent="15" vertex="1" connectable="0">
                    <mxGeometry x="-0.3" relative="1" as="geometry">
                        <mxPoint as="offset"/>
                    </mxGeometry>
                </mxCell>
                <mxCell id="19" value="" style="endArrow=classic;html=1;" parent="1" edge="1">
                    <mxGeometry width="50" height="50" relative="1" as="geometry">
                        <mxPoint x="40" y="-1050" as="sourcePoint"/>
                        <mxPoint x="200" y="-1050" as="targetPoint"/>
                    </mxGeometry>
                </mxCell>
                <mxCell id="20" value="Поставщики" style="edgeLabel;html=1;align=center;verticalAlign=middle;resizable=0;points=[];" parent="19" vertex="1" connectable="0">
                    <mxGeometry x="-0.3" relative="1" as="geometry">
                        <mxPoint as="offset"/>
                    </mxGeometry>
                </mxCell>
                <mxCell id="21" value="" style="endArrow=classic;html=1;" parent="1" edge="1">
                    <mxGeometry width="50" height="50" relative="1" as="geometry">
                        <mxPoint x="40" y="-1020" as="sourcePoint"/>
                        <mxPoint x="200" y="-1020" as="targetPoint"/>
                    </mxGeometry>
                </mxCell>
                <mxCell id="22" value="Товар от поставщика" style="edgeLabel;html=1;align=center;verticalAlign=middle;resizable=0;points=[];" parent="21" vertex="1" connectable="0">
                    <mxGeometry x="-0.3" relative="1" as="geometry">
                        <mxPoint x="24" as="offset"/>
                    </mxGeometry>
                </mxCell>
                <mxCell id="23" value="Сотрудники ДпМ" style="endArrow=classic;html=1;entryX=0.25;entryY=1;entryDx=0;entryDy=0;" parent="1" edge="1">
                    <mxGeometry width="50" height="50" relative="1" as="geometry">
                        <mxPoint x="255" y="-841" as="sourcePoint"/>
                        <mxPoint x="255" y="-961" as="targetPoint"/>
                        <Array as="points">
                            <mxPoint x="255" y="-891"/>
                        </Array>
                        <mxPoint as="offset"/>
                    </mxGeometry>
                </mxCell>
                <mxCell id="24" value="ПК, ПО,&lt;br&gt;&amp;nbsp;средства связи" style="endArrow=classic;html=1;entryX=0.25;entryY=1;entryDx=0;entryDy=0;" parent="1" edge="1">
                    <mxGeometry width="50" height="50" relative="1" as="geometry">
                        <mxPoint x="360" y="-840" as="sourcePoint"/>
                        <mxPoint x="360" y="-960" as="targetPoint"/>
                        <Array as="points">
                            <mxPoint x="360" y="-890"/>
                        </Array>
                    </mxGeometry>
                </mxCell>
                <mxCell id="25" value="" style="endArrow=classic;html=1;" parent="1" edge="1">
                    <mxGeometry width="50" height="50" relative="1" as="geometry">
                        <mxPoint x="420" y="-1110" as="sourcePoint"/>
                        <mxPoint x="580" y="-1110" as="targetPoint"/>
                    </mxGeometry>
                </mxCell>
                <mxCell id="26" value="Товар поставлен" style="edgeLabel;html=1;align=center;verticalAlign=middle;resizable=0;points=[];" parent="25" vertex="1" connectable="0">
                    <mxGeometry x="-0.3" relative="1" as="geometry">
                        <mxPoint as="offset"/>
                    </mxGeometry>
                </mxCell>
                <mxCell id="27" value="" style="endArrow=classic;html=1;" parent="1" edge="1">
                    <mxGeometry width="50" height="50" relative="1" as="geometry">
                        <mxPoint x="420" y="-1080" as="sourcePoint"/>
                        <mxPoint x="580" y="-1080" as="targetPoint"/>
                    </mxGeometry>
                </mxCell>
                <mxCell id="28" value="Документы на товар" style="edgeLabel;html=1;align=center;verticalAlign=middle;resizable=0;points=[];" parent="27" vertex="1" connectable="0">
                    <mxGeometry x="-0.3" relative="1" as="geometry">
                        <mxPoint x="14" as="offset"/>
                    </mxGeometry>
                </mxCell>
                <mxCell id="29" value="" style="endArrow=classic;html=1;entryX=0.5;entryY=0;entryDx=0;entryDy=0;" parent="1" edge="1">
                    <mxGeometry width="50" height="50" relative="1" as="geometry">
                        <mxPoint x="414" y="-1220" as="sourcePoint"/>
                        <mxPoint x="414" y="-1120" as="targetPoint"/>
                    </mxGeometry>
                </mxCell>
                <mxCell id="30" value="Регламенты и&lt;br&gt;&amp;nbsp;инструкции ТК Альфа" style="edgeLabel;html=1;align=center;verticalAlign=middle;resizable=0;points=[];" parent="29" vertex="1" connectable="0">
                    <mxGeometry x="0.5556" y="3" relative="1" as="geometry">
                        <mxPoint x="2" y="-40" as="offset"/>
                    </mxGeometry>
                </mxCell>
                <mxCell id="31" value="А0" style="text;html=1;strokeColor=none;fillColor=none;align=center;verticalAlign=middle;whiteSpace=wrap;fontStyle=1" parent="1" vertex="1">
                    <mxGeometry x="370" y="-990" width="60" height="30" as="geometry"/>
                </mxCell>
                <mxCell id="32" value="&lt;h1&gt;Бизнес-процесс закупки товаров ТК Альфа&lt;/h1&gt;&lt;p&gt;&lt;br&gt;&lt;/p&gt;" style="text;html=1;strokeColor=none;fillColor=none;spacing=5;spacingTop=-20;whiteSpace=wrap;overflow=hidden;" parent="1" vertex="1">
                    <mxGeometry x="40" y="-1620" width="800" height="40" as="geometry"/>
                </mxCell>
                <mxCell id="82" value="" style="endArrow=classic;html=1;entryX=0.5;entryY=0;entryDx=0;entryDy=0;" parent="1" edge="1">
                    <mxGeometry width="50" height="50" relative="1" as="geometry">
                        <mxPoint x="340" y="-1220" as="sourcePoint"/>
                        <mxPoint x="340" y="-1120" as="targetPoint"/>
                    </mxGeometry>
                </mxCell>
                <mxCell id="83" value="ГБ" style="edgeLabel;html=1;align=center;verticalAlign=middle;resizable=0;points=[];" parent="82" vertex="1" connectable="0">
                    <mxGeometry x="0.5556" y="3" relative="1" as="geometry">
                        <mxPoint x="2" y="-40" as="offset"/>
                    </mxGeometry>
                </mxCell>
                <mxCell id="3hgqj-hZZzo7kZqrcJBQ-83" value="Легенда" style="swimlane;swimlaneLine=0;" parent="1" vertex="1">
                    <mxGeometry x="50" y="-1560" width="570" height="280" as="geometry"/>
                </mxCell>
                <mxCell id="3hgqj-hZZzo7kZqrcJBQ-84" value="Наименование блока работ&amp;nbsp; (действия)" style="whiteSpace=wrap;html=1;" parent="3hgqj-hZZzo7kZqrcJBQ-83" vertex="1">
                    <mxGeometry x="15" y="40" width="205" height="70" as="geometry"/>
                </mxCell>
                <mxCell id="3hgqj-hZZzo7kZqrcJBQ-85" value="Порядок действия" style="text;html=1;strokeColor=none;fillColor=none;align=center;verticalAlign=middle;whiteSpace=wrap;" parent="3hgqj-hZZzo7kZqrcJBQ-83" vertex="1">
                    <mxGeometry x="105" y="85" width="115" height="30" as="geometry"/>
                </mxCell>
                <mxCell id="3hgqj-hZZzo7kZqrcJBQ-87" value="Данные указаны только на родительской&amp;nbsp; и дочерней схеме" style="text;html=1;strokeColor=none;fillColor=none;align=center;verticalAlign=middle;whiteSpace=wrap;" parent="3hgqj-hZZzo7kZqrcJBQ-83" vertex="1">
                    <mxGeometry x="365" y="50" width="155" height="30" as="geometry"/>
                </mxCell>
                <mxCell id="3hgqj-hZZzo7kZqrcJBQ-88" value="" style="endArrow=classic;html=1;startArrow=oval;startFill=0;" parent="3hgqj-hZZzo7kZqrcJBQ-83" edge="1">
                    <mxGeometry width="50" height="50" relative="1" as="geometry">
                        <mxPoint x="270" y="99.41" as="sourcePoint"/>
                        <mxPoint x="340" y="99.41" as="targetPoint"/>
                    </mxGeometry>
                </mxCell>
                <mxCell id="3hgqj-hZZzo7kZqrcJBQ-89" value="Данные указаны только на родительской схеме" style="text;html=1;strokeColor=none;fillColor=none;align=center;verticalAlign=middle;whiteSpace=wrap;" parent="3hgqj-hZZzo7kZqrcJBQ-83" vertex="1">
                    <mxGeometry x="365" y="85" width="155" height="30" as="geometry"/>
                </mxCell>
                <mxCell id="84" value="" style="endArrow=block;html=1;endFill=0;" parent="3hgqj-hZZzo7kZqrcJBQ-83" edge="1">
                    <mxGeometry width="50" height="50" relative="1" as="geometry">
                        <mxPoint x="270" y="140" as="sourcePoint"/>
                        <mxPoint x="340" y="140" as="targetPoint"/>
                    </mxGeometry>
                </mxCell>
                <mxCell id="85" value="Данные указаны только на дочерней схеме" style="text;html=1;strokeColor=none;fillColor=none;align=center;verticalAlign=middle;whiteSpace=wrap;" parent="3hgqj-hZZzo7kZqrcJBQ-83" vertex="1">
                    <mxGeometry x="365" y="130" width="155" height="30" as="geometry"/>
                </mxCell>
                <mxCell id="3hgqj-hZZzo7kZqrcJBQ-86" value="" style="endArrow=classic;html=1;" parent="3hgqj-hZZzo7kZqrcJBQ-83" edge="1">
                    <mxGeometry width="50" height="50" relative="1" as="geometry">
                        <mxPoint x="270" y="64.41" as="sourcePoint"/>
                        <mxPoint x="340" y="64.41" as="targetPoint"/>
                    </mxGeometry>
                </mxCell>
                <mxCell id="92" value="Справочная информация" style="swimlane;swimlaneLine=0;" parent="1" vertex="1">
                    <mxGeometry x="640" y="-1560" width="510" height="280" as="geometry">
                        <mxRectangle x="640" y="-1560" width="180" height="23" as="alternateBounds"/>
                    </mxGeometry>
                </mxCell>
                <mxCell id="100" value="&lt;h1 style=&quot;font-size: 14px;&quot;&gt;&lt;font style=&quot;font-size: 14px;&quot;&gt;Границы процесса&lt;/font&gt;&lt;/h1&gt;&lt;div style=&quot;font-size: 14px;&quot;&gt;&lt;font style=&quot;font-size: 14px;&quot;&gt;&lt;b style=&quot;font-size: 14px;&quot;&gt;От&lt;/b&gt; планирования закупки&amp;nbsp;&lt;/font&gt;&lt;/div&gt;&lt;div style=&quot;font-size: 14px;&quot;&gt;&lt;font style=&quot;font-size: 14px;&quot;&gt;&lt;b style=&quot;font-size: 14px;&quot;&gt;До&lt;/b&gt; поставки товара на склад&lt;/font&gt;&lt;/div&gt;&lt;div style=&quot;font-size: 14px;&quot;&gt;&lt;font style=&quot;font-size: 14px;&quot;&gt;&lt;br style=&quot;font-size: 14px;&quot;&gt;&lt;/font&gt;&lt;/div&gt;&lt;div style=&quot;font-size: 14px;&quot;&gt;&lt;font style=&quot;font-size: 14px;&quot;&gt;&lt;b style=&quot;font-size: 14px;&quot;&gt;Владельцы процесса:&lt;/b&gt;&lt;/font&gt;&lt;/div&gt;&lt;div style=&quot;font-size: 14px;&quot;&gt;&lt;font style=&quot;font-size: 14px;&quot;&gt;Дирекция по маркетингу&lt;/font&gt;&lt;/div&gt;&lt;div style=&quot;font-size: 14px;&quot;&gt;&lt;font style=&quot;font-size: 14px;&quot;&gt;&lt;br style=&quot;font-size: 14px;&quot;&gt;&lt;/font&gt;&lt;/div&gt;&lt;div style=&quot;font-size: 14px;&quot;&gt;&lt;font style=&quot;font-size: 14px;&quot;&gt;&lt;b style=&quot;font-size: 14px;&quot;&gt;Уровень процесса: 0&lt;/b&gt;&lt;/font&gt;&lt;/div&gt;&lt;div style=&quot;font-size: 14px;&quot;&gt;&lt;font style=&quot;font-size: 14px;&quot;&gt;&lt;br style=&quot;font-size: 14px;&quot;&gt;&lt;/font&gt;&lt;/div&gt;" style="text;html=1;strokeColor=none;fillColor=none;spacing=5;spacingTop=-20;whiteSpace=wrap;overflow=hidden;rounded=0;fontSize=14;" parent="92" vertex="1">
                    <mxGeometry x="10" y="30" width="190" height="160" as="geometry"/>
                </mxCell>
                <mxCell id="101" value="&lt;h1 style=&quot;font-size: 14px&quot;&gt;&lt;font style=&quot;font-size: 14px&quot;&gt;Участники процесса&lt;/font&gt;&lt;/h1&gt;&lt;div style=&quot;font-size: 10px&quot;&gt;&lt;ul&gt;&lt;li&gt;&lt;b&gt;Дирекиця по маркетингу&lt;/b&gt;&lt;/li&gt;&lt;li&gt;&lt;b&gt;Коммерческая дирекция&lt;/b&gt;&lt;/li&gt;&lt;li&gt;&lt;b&gt;Управление транспортной логистики&lt;/b&gt;&lt;/li&gt;&lt;li&gt;&lt;b&gt;Управление складской логистики&lt;/b&gt;&lt;/li&gt;&lt;li&gt;&lt;b&gt;Управление развития бизнес-продуктов&lt;/b&gt;&lt;/li&gt;&lt;li&gt;&lt;b&gt;Финансовая дирекция&lt;/b&gt;&lt;br&gt;&lt;/li&gt;&lt;li&gt;&lt;b&gt;Поставщики&lt;/b&gt;&lt;/li&gt;&lt;li&gt;&lt;b&gt;&quot;Лада-имидж&quot;&lt;/b&gt;&lt;/li&gt;&lt;/ul&gt;&lt;/div&gt;" style="text;html=1;strokeColor=none;fillColor=none;spacing=5;spacingTop=-20;whiteSpace=wrap;overflow=hidden;rounded=0;fontSize=14;" parent="92" vertex="1">
                    <mxGeometry x="280" y="30" width="190" height="230" as="geometry"/>
                </mxCell>
                <mxCell id="103" value="" style="endArrow=classic;html=1;" parent="1" edge="1">
                    <mxGeometry width="50" height="50" relative="1" as="geometry">
                        <mxPoint x="42" y="-982" as="sourcePoint"/>
                        <mxPoint x="202" y="-982" as="targetPoint"/>
                    </mxGeometry>
                </mxCell>
                <mxCell id="104" value="Предложение поставщика&amp;nbsp;&lt;br&gt;(прайс-лист)" style="edgeLabel;html=1;align=center;verticalAlign=middle;resizable=0;points=[];" parent="103" vertex="1" connectable="0">
                    <mxGeometry x="-0.3" relative="1" as="geometry">
                        <mxPoint x="22" as="offset"/>
                    </mxGeometry>
                </mxCell>
                <mxCell id="105" value="" style="endArrow=classic;html=1;" parent="1" edge="1">
                    <mxGeometry width="50" height="50" relative="1" as="geometry">
                        <mxPoint x="420" y="-1040.59" as="sourcePoint"/>
                        <mxPoint x="580" y="-1040.59" as="targetPoint"/>
                    </mxGeometry>
                </mxCell>
                <mxCell id="106" value="Складские остатки" style="edgeLabel;html=1;align=center;verticalAlign=middle;resizable=0;points=[];" parent="105" vertex="1" connectable="0">
                    <mxGeometry x="-0.3" relative="1" as="geometry">
                        <mxPoint as="offset"/>
                    </mxGeometry>
                </mxCell>
                <mxCell id="107" value="" style="endArrow=classic;html=1;" parent="1" edge="1">
                    <mxGeometry width="50" height="50" relative="1" as="geometry">
                        <mxPoint x="420" y="-999.9999999999999" as="sourcePoint"/>
                        <mxPoint x="580" y="-999.9999999999999" as="targetPoint"/>
                    </mxGeometry>
                </mxCell>
                <mxCell id="108" value="Прайс-лист ТК Альфа" style="edgeLabel;html=1;align=center;verticalAlign=middle;resizable=0;points=[];" parent="107" vertex="1" connectable="0">
                    <mxGeometry x="-0.3" relative="1" as="geometry">
                        <mxPoint x="16" as="offset"/>
                    </mxGeometry>
                </mxCell>
            </root>
        </mxGraphModel>
    </diagram>
    <diagram id="v2PQxjoCmLnPPSp1qnKz" name="Уровень 1">
        <mxGraphModel dx="1204" dy="2444" grid="1" gridSize="10" guides="1" tooltips="1" connect="1" arrows="1" fold="1" page="1" pageScale="1" pageWidth="1169" pageHeight="827" math="0" shadow="0">
            <root>
                <mxCell id="thxEFjQNXHIUthMNDt9b-0"/>
                <mxCell id="thxEFjQNXHIUthMNDt9b-1" parent="thxEFjQNXHIUthMNDt9b-0"/>
                <mxCell id="ANPe0YaM8eMF2opWlhZN-0" value="Планировать закупку" style="rounded=0;whiteSpace=wrap;html=1;" parent="thxEFjQNXHIUthMNDt9b-1" vertex="1">
                    <mxGeometry x="180" y="-1119.65" width="120" height="60" as="geometry"/>
                </mxCell>
                <mxCell id="ANPe0YaM8eMF2opWlhZN-1" value="Выбор поставщиков" style="rounded=0;whiteSpace=wrap;html=1;" parent="thxEFjQNXHIUthMNDt9b-1" vertex="1">
                    <mxGeometry x="374" y="-999.65" width="120" height="60" as="geometry"/>
                </mxCell>
                <mxCell id="ANPe0YaM8eMF2opWlhZN-2" value="Заключение договоров" style="rounded=0;whiteSpace=wrap;html=1;" parent="thxEFjQNXHIUthMNDt9b-1" vertex="1">
                    <mxGeometry x="550" y="-879.65" width="120" height="60" as="geometry"/>
                </mxCell>
                <mxCell id="ANPe0YaM8eMF2opWlhZN-3" value="" style="endArrow=classic;html=1;" parent="thxEFjQNXHIUthMNDt9b-1" edge="1">
                    <mxGeometry width="50" height="50" relative="1" as="geometry">
                        <mxPoint x="60" y="-1103.65" as="sourcePoint"/>
                        <mxPoint x="180" y="-1103.65" as="targetPoint"/>
                    </mxGeometry>
                </mxCell>
                <mxCell id="ANPe0YaM8eMF2opWlhZN-4" value="Статистика продаж" style="edgeLabel;html=1;align=center;verticalAlign=middle;resizable=0;points=[];" parent="ANPe0YaM8eMF2opWlhZN-3" vertex="1" connectable="0">
                    <mxGeometry x="-0.3" relative="1" as="geometry">
                        <mxPoint x="21" as="offset"/>
                    </mxGeometry>
                </mxCell>
                <mxCell id="ANPe0YaM8eMF2opWlhZN-5" value="" style="endArrow=classic;html=1;" parent="thxEFjQNXHIUthMNDt9b-1" edge="1">
                    <mxGeometry width="50" height="50" relative="1" as="geometry">
                        <mxPoint x="60" y="-1079.65" as="sourcePoint"/>
                        <mxPoint x="180" y="-1079.65" as="targetPoint"/>
                    </mxGeometry>
                </mxCell>
                <mxCell id="ANPe0YaM8eMF2opWlhZN-6" value="Поставщики" style="edgeLabel;html=1;align=center;verticalAlign=middle;resizable=0;points=[];" parent="ANPe0YaM8eMF2opWlhZN-5" vertex="1" connectable="0">
                    <mxGeometry x="-0.3" relative="1" as="geometry">
                        <mxPoint as="offset"/>
                    </mxGeometry>
                </mxCell>
                <mxCell id="ANPe0YaM8eMF2opWlhZN-7" value="" style="endArrow=classic;html=1;entryX=0.017;entryY=0.883;entryDx=0;entryDy=0;entryPerimeter=0;" parent="thxEFjQNXHIUthMNDt9b-1" target="ANPe0YaM8eMF2opWlhZN-1" edge="1">
                    <mxGeometry width="50" height="50" relative="1" as="geometry">
                        <mxPoint x="60" y="-945.65" as="sourcePoint"/>
                        <mxPoint x="370" y="-945.65" as="targetPoint"/>
                    </mxGeometry>
                </mxCell>
                <mxCell id="ANPe0YaM8eMF2opWlhZN-8" value="Заказ покупателя" style="edgeLabel;html=1;align=center;verticalAlign=middle;resizable=0;points=[];" parent="ANPe0YaM8eMF2opWlhZN-7" vertex="1" connectable="0">
                    <mxGeometry x="-0.3" relative="1" as="geometry">
                        <mxPoint x="-62" as="offset"/>
                    </mxGeometry>
                </mxCell>
                <mxCell id="ANPe0YaM8eMF2opWlhZN-9" value="" style="endArrow=classic;html=1;entryX=0;entryY=0.75;entryDx=0;entryDy=0;" parent="thxEFjQNXHIUthMNDt9b-1" target="ANPe0YaM8eMF2opWlhZN-21" edge="1">
                    <mxGeometry width="50" height="50" relative="1" as="geometry">
                        <mxPoint x="60" y="-714.65" as="sourcePoint"/>
                        <mxPoint x="220" y="-839.65" as="targetPoint"/>
                    </mxGeometry>
                </mxCell>
                <mxCell id="ANPe0YaM8eMF2opWlhZN-10" value="Товар от поставщика" style="edgeLabel;html=1;align=center;verticalAlign=middle;resizable=0;points=[];" parent="ANPe0YaM8eMF2opWlhZN-9" vertex="1" connectable="0">
                    <mxGeometry x="-0.3" relative="1" as="geometry">
                        <mxPoint x="-182" as="offset"/>
                    </mxGeometry>
                </mxCell>
                <mxCell id="ANPe0YaM8eMF2opWlhZN-11" value="Сотрудники&lt;br&gt;&amp;nbsp;ДпМ" style="endArrow=classic;html=1;entryX=0.342;entryY=1;entryDx=0;entryDy=0;entryPerimeter=0;" parent="thxEFjQNXHIUthMNDt9b-1" target="ANPe0YaM8eMF2opWlhZN-0" edge="1">
                    <mxGeometry x="-1" y="170" width="50" height="50" relative="1" as="geometry">
                        <mxPoint x="221" y="-719.65" as="sourcePoint"/>
                        <mxPoint x="220" y="-809.65" as="targetPoint"/>
                        <Array as="points">
                            <mxPoint x="220" y="-739.65"/>
                        </Array>
                        <mxPoint x="170" y="162" as="offset"/>
                    </mxGeometry>
                </mxCell>
                <mxCell id="ANPe0YaM8eMF2opWlhZN-12" value="ПК, ПО,&lt;br&gt;средства связи" style="endArrow=classic;html=1;entryX=0.75;entryY=1;entryDx=0;entryDy=0;" parent="thxEFjQNXHIUthMNDt9b-1" edge="1">
                    <mxGeometry x="-1" y="-173" width="50" height="50" relative="1" as="geometry">
                        <mxPoint x="280" y="-719.65" as="sourcePoint"/>
                        <mxPoint x="281" y="-1059.65" as="targetPoint"/>
                        <Array as="points"/>
                        <mxPoint x="-143" y="169" as="offset"/>
                    </mxGeometry>
                </mxCell>
                <mxCell id="ANPe0YaM8eMF2opWlhZN-13" value="" style="endArrow=classic;html=1;entryX=0.308;entryY=0.983;entryDx=0;entryDy=0;entryPerimeter=0;" parent="thxEFjQNXHIUthMNDt9b-1" target="ANPe0YaM8eMF2opWlhZN-1" edge="1">
                    <mxGeometry width="50" height="50" relative="1" as="geometry">
                        <mxPoint x="220" y="-719.65" as="sourcePoint"/>
                        <mxPoint x="420" y="-809.65" as="targetPoint"/>
                        <Array as="points">
                            <mxPoint x="220" y="-799.65"/>
                            <mxPoint x="411" y="-799.65"/>
                            <mxPoint x="411" y="-879.65"/>
                        </Array>
                    </mxGeometry>
                </mxCell>
                <mxCell id="ANPe0YaM8eMF2opWlhZN-14" value="" style="endArrow=classic;html=1;entryX=0.808;entryY=1.017;entryDx=0;entryDy=0;entryPerimeter=0;" parent="thxEFjQNXHIUthMNDt9b-1" target="ANPe0YaM8eMF2opWlhZN-1" edge="1">
                    <mxGeometry width="50" height="50" relative="1" as="geometry">
                        <mxPoint x="280" y="-719.65" as="sourcePoint"/>
                        <mxPoint x="300" y="-919.65" as="targetPoint"/>
                        <Array as="points">
                            <mxPoint x="280" y="-799.65"/>
                            <mxPoint x="471" y="-799.65"/>
                        </Array>
                    </mxGeometry>
                </mxCell>
                <mxCell id="ANPe0YaM8eMF2opWlhZN-15" value="" style="endArrow=classic;html=1;entryX=0.25;entryY=1;entryDx=0;entryDy=0;" parent="thxEFjQNXHIUthMNDt9b-1" target="ANPe0YaM8eMF2opWlhZN-2" edge="1">
                    <mxGeometry width="50" height="50" relative="1" as="geometry">
                        <mxPoint x="220" y="-549.65" as="sourcePoint"/>
                        <mxPoint x="300" y="-919.65" as="targetPoint"/>
                        <Array as="points">
                            <mxPoint x="220" y="-759.65"/>
                            <mxPoint x="580" y="-759.65"/>
                        </Array>
                    </mxGeometry>
                </mxCell>
                <mxCell id="ANPe0YaM8eMF2opWlhZN-16" value="" style="endArrow=classic;html=1;entryX=0.75;entryY=1;entryDx=0;entryDy=0;" parent="thxEFjQNXHIUthMNDt9b-1" target="ANPe0YaM8eMF2opWlhZN-2" edge="1">
                    <mxGeometry width="50" height="50" relative="1" as="geometry">
                        <mxPoint x="280" y="-539.65" as="sourcePoint"/>
                        <mxPoint x="300" y="-919.65" as="targetPoint"/>
                        <Array as="points">
                            <mxPoint x="280" y="-1059.65"/>
                            <mxPoint x="280" y="-569.65"/>
                            <mxPoint x="460" y="-569.65"/>
                            <mxPoint x="640" y="-569.65"/>
                            <mxPoint x="640" y="-609.65"/>
                            <mxPoint x="640" y="-759.65"/>
                        </Array>
                    </mxGeometry>
                </mxCell>
                <mxCell id="ANPe0YaM8eMF2opWlhZN-17" value="" style="endArrow=classic;html=1;exitX=1;exitY=0.5;exitDx=0;exitDy=0;entryX=0;entryY=0.25;entryDx=0;entryDy=0;" parent="thxEFjQNXHIUthMNDt9b-1" source="ANPe0YaM8eMF2opWlhZN-0" target="ANPe0YaM8eMF2opWlhZN-1" edge="1">
                    <mxGeometry width="50" height="50" relative="1" as="geometry">
                        <mxPoint x="250" y="-869.65" as="sourcePoint"/>
                        <mxPoint x="300" y="-919.65" as="targetPoint"/>
                        <Array as="points">
                            <mxPoint x="340" y="-1089.65"/>
                            <mxPoint x="340" y="-984.65"/>
                        </Array>
                    </mxGeometry>
                </mxCell>
                <mxCell id="ANPe0YaM8eMF2opWlhZN-18" value="План закупок" style="edgeLabel;html=1;align=center;verticalAlign=middle;resizable=0;points=[];" parent="ANPe0YaM8eMF2opWlhZN-17" vertex="1" connectable="0">
                    <mxGeometry x="-0.2649" y="1" relative="1" as="geometry">
                        <mxPoint as="offset"/>
                    </mxGeometry>
                </mxCell>
                <mxCell id="ANPe0YaM8eMF2opWlhZN-19" value="" style="endArrow=classic;html=1;exitX=1;exitY=0.5;exitDx=0;exitDy=0;entryX=0;entryY=0.25;entryDx=0;entryDy=0;" parent="thxEFjQNXHIUthMNDt9b-1" source="ANPe0YaM8eMF2opWlhZN-1" target="ANPe0YaM8eMF2opWlhZN-2" edge="1">
                    <mxGeometry width="50" height="50" relative="1" as="geometry">
                        <mxPoint x="250" y="-869.65" as="sourcePoint"/>
                        <mxPoint x="300" y="-919.65" as="targetPoint"/>
                        <Array as="points">
                            <mxPoint x="540" y="-969.65"/>
                            <mxPoint x="540" y="-864.65"/>
                        </Array>
                    </mxGeometry>
                </mxCell>
                <mxCell id="ANPe0YaM8eMF2opWlhZN-20" value="Панель поставщиков" style="edgeLabel;html=1;align=center;verticalAlign=middle;resizable=0;points=[];" parent="ANPe0YaM8eMF2opWlhZN-19" vertex="1" connectable="0">
                    <mxGeometry x="0.0756" y="3" relative="1" as="geometry">
                        <mxPoint as="offset"/>
                    </mxGeometry>
                </mxCell>
                <mxCell id="ANPe0YaM8eMF2opWlhZN-21" value="Организация и контроль поставки" style="rounded=0;whiteSpace=wrap;html=1;" parent="thxEFjQNXHIUthMNDt9b-1" vertex="1">
                    <mxGeometry x="780" y="-759.65" width="120" height="60" as="geometry"/>
                </mxCell>
                <mxCell id="ANPe0YaM8eMF2opWlhZN-22" value="" style="endArrow=classic;html=1;exitX=1;exitY=0.5;exitDx=0;exitDy=0;entryX=0;entryY=0.5;entryDx=0;entryDy=0;" parent="thxEFjQNXHIUthMNDt9b-1" source="ANPe0YaM8eMF2opWlhZN-2" target="ANPe0YaM8eMF2opWlhZN-21" edge="1">
                    <mxGeometry width="50" height="50" relative="1" as="geometry">
                        <mxPoint x="640" y="-919.65" as="sourcePoint"/>
                        <mxPoint x="690" y="-969.65" as="targetPoint"/>
                        <Array as="points">
                            <mxPoint x="740" y="-849.65"/>
                            <mxPoint x="740" y="-779.65"/>
                            <mxPoint x="740" y="-729.65"/>
                        </Array>
                    </mxGeometry>
                </mxCell>
                <mxCell id="ANPe0YaM8eMF2opWlhZN-23" value="Договор с поставщиком" style="text;html=1;strokeColor=none;fillColor=none;align=center;verticalAlign=middle;whiteSpace=wrap;rounded=0;" parent="thxEFjQNXHIUthMNDt9b-1" vertex="1">
                    <mxGeometry x="710" y="-809.65" width="60" height="30" as="geometry"/>
                </mxCell>
                <mxCell id="ANPe0YaM8eMF2opWlhZN-28" value="Потребность &lt;br&gt;покупателей" style="endArrow=block;html=1;exitX=0.6;exitY=0.575;exitDx=0;exitDy=0;exitPerimeter=0;entryX=0;entryY=1;entryDx=0;entryDy=0;endFill=0;startArrow=none;startFill=0;" parent="thxEFjQNXHIUthMNDt9b-1" target="ANPe0YaM8eMF2opWlhZN-0" edge="1">
                    <mxGeometry width="50" height="50" relative="1" as="geometry">
                        <mxPoint x="60" y="-1059.65" as="sourcePoint"/>
                        <mxPoint x="490" y="-1099.65" as="targetPoint"/>
                    </mxGeometry>
                </mxCell>
                <mxCell id="ANPe0YaM8eMF2opWlhZN-29" value="" style="endArrow=classic;html=1;entryX=0.5;entryY=0;entryDx=0;entryDy=0;" parent="thxEFjQNXHIUthMNDt9b-1" edge="1">
                    <mxGeometry width="50" height="50" relative="1" as="geometry">
                        <mxPoint x="210" y="-1219.65" as="sourcePoint"/>
                        <mxPoint x="210" y="-1119.65" as="targetPoint"/>
                    </mxGeometry>
                </mxCell>
                <mxCell id="ANPe0YaM8eMF2opWlhZN-30" value="ГБ" style="edgeLabel;html=1;align=center;verticalAlign=middle;resizable=0;points=[];" parent="ANPe0YaM8eMF2opWlhZN-29" vertex="1" connectable="0">
                    <mxGeometry x="0.5556" y="3" relative="1" as="geometry">
                        <mxPoint y="-88" as="offset"/>
                    </mxGeometry>
                </mxCell>
                <mxCell id="ANPe0YaM8eMF2opWlhZN-31" value="" style="endArrow=classic;html=1;entryX=0.5;entryY=0;entryDx=0;entryDy=0;" parent="thxEFjQNXHIUthMNDt9b-1" edge="1">
                    <mxGeometry width="50" height="50" relative="1" as="geometry">
                        <mxPoint x="290" y="-1219.65" as="sourcePoint"/>
                        <mxPoint x="290" y="-1119.65" as="targetPoint"/>
                    </mxGeometry>
                </mxCell>
                <mxCell id="ANPe0YaM8eMF2opWlhZN-32" value="Регламенты и&lt;br&gt;&amp;nbsp;инструкции ТК Альфа" style="edgeLabel;html=1;align=center;verticalAlign=middle;resizable=0;points=[];" parent="ANPe0YaM8eMF2opWlhZN-31" vertex="1" connectable="0">
                    <mxGeometry x="0.5556" y="3" relative="1" as="geometry">
                        <mxPoint x="2" y="-98" as="offset"/>
                    </mxGeometry>
                </mxCell>
                <mxCell id="ANPe0YaM8eMF2opWlhZN-33" value="" style="endArrow=classic;html=1;exitX=1;exitY=0.25;exitDx=0;exitDy=0;" parent="thxEFjQNXHIUthMNDt9b-1" source="ANPe0YaM8eMF2opWlhZN-1" edge="1">
                    <mxGeometry width="50" height="50" relative="1" as="geometry">
                        <mxPoint x="440" y="-959.65" as="sourcePoint"/>
                        <mxPoint x="1160" y="-984.65" as="targetPoint"/>
                    </mxGeometry>
                </mxCell>
                <mxCell id="ANPe0YaM8eMF2opWlhZN-34" value="Не подходящие поставщики" style="edgeLabel;html=1;align=center;verticalAlign=middle;resizable=0;points=[];" parent="ANPe0YaM8eMF2opWlhZN-33" vertex="1" connectable="0">
                    <mxGeometry x="-0.7358" y="-1" relative="1" as="geometry">
                        <mxPoint x="458" as="offset"/>
                    </mxGeometry>
                </mxCell>
                <mxCell id="ANPe0YaM8eMF2opWlhZN-35" value="" style="endArrow=classic;html=1;exitX=1;exitY=0.25;exitDx=0;exitDy=0;entryX=0.25;entryY=0;entryDx=0;entryDy=0;" parent="thxEFjQNXHIUthMNDt9b-1" source="ANPe0YaM8eMF2opWlhZN-0" target="ANPe0YaM8eMF2opWlhZN-21" edge="1">
                    <mxGeometry width="50" height="50" relative="1" as="geometry">
                        <mxPoint x="680" y="-959.65" as="sourcePoint"/>
                        <mxPoint x="730" y="-1009.65" as="targetPoint"/>
                        <Array as="points">
                            <mxPoint x="810" y="-1099.65"/>
                        </Array>
                    </mxGeometry>
                </mxCell>
                <mxCell id="ANPe0YaM8eMF2opWlhZN-36" value="Заявки поставщикам" style="edgeLabel;html=1;align=center;verticalAlign=middle;resizable=0;points=[];" parent="ANPe0YaM8eMF2opWlhZN-35" vertex="1" connectable="0">
                    <mxGeometry x="-0.3553" y="1" relative="1" as="geometry">
                        <mxPoint x="-200" y="-1" as="offset"/>
                    </mxGeometry>
                </mxCell>
                <mxCell id="DnuumN9TZTkb6_Nzemwg-0" value="Предложение поставщика&lt;br&gt;&amp;nbsp;(прайс-лист)" style="endArrow=classic;html=1;" parent="thxEFjQNXHIUthMNDt9b-1" edge="1">
                    <mxGeometry x="-0.5625" width="50" height="50" relative="1" as="geometry">
                        <mxPoint x="64" y="-970.15" as="sourcePoint"/>
                        <mxPoint x="374" y="-969.65" as="targetPoint"/>
                        <mxPoint as="offset"/>
                    </mxGeometry>
                </mxCell>
                <mxCell id="N9vuIrWTDuhko3QdiJd4-0" value="" style="endArrow=block;html=1;fontSize=10;entryX=0.142;entryY=1.017;entryDx=0;entryDy=0;entryPerimeter=0;startArrow=none;startFill=0;endFill=0;" parent="thxEFjQNXHIUthMNDt9b-1" target="ANPe0YaM8eMF2opWlhZN-2" edge="1">
                    <mxGeometry width="50" height="50" relative="1" as="geometry">
                        <mxPoint x="567" y="-539.65" as="sourcePoint"/>
                        <mxPoint x="640" y="-939.65" as="targetPoint"/>
                        <Array as="points">
                            <mxPoint x="567" y="-539.65"/>
                        </Array>
                    </mxGeometry>
                </mxCell>
                <mxCell id="N9vuIrWTDuhko3QdiJd4-1" value="Согласующие" style="edgeLabel;html=1;align=center;verticalAlign=middle;resizable=0;points=[];fontSize=10;" parent="N9vuIrWTDuhko3QdiJd4-0" vertex="1" connectable="0">
                    <mxGeometry x="-0.6712" y="-1" relative="1" as="geometry">
                        <mxPoint y="26" as="offset"/>
                    </mxGeometry>
                </mxCell>
                <mxCell id="OqO_eJRZsi1mzWAIs8H0-0" value="Закупочные&lt;br&gt;&amp;nbsp;обязательства" style="endArrow=classic;html=1;fontSize=10;entryX=0.5;entryY=0;entryDx=0;entryDy=0;exitX=1;exitY=0.25;exitDx=0;exitDy=0;" parent="thxEFjQNXHIUthMNDt9b-1" source="ANPe0YaM8eMF2opWlhZN-2" target="ANPe0YaM8eMF2opWlhZN-0" edge="1">
                    <mxGeometry width="50" height="50" relative="1" as="geometry">
                        <mxPoint x="1020" y="-1179.65" as="sourcePoint"/>
                        <mxPoint x="640" y="-939.65" as="targetPoint"/>
                        <Array as="points">
                            <mxPoint x="770" y="-864.65"/>
                            <mxPoint x="770" y="-1159.65"/>
                            <mxPoint x="240" y="-1159.65"/>
                        </Array>
                    </mxGeometry>
                </mxCell>
                <mxCell id="OqO_eJRZsi1mzWAIs8H0-4" value="" style="endArrow=block;html=1;fontSize=10;entryX=0.158;entryY=0.983;entryDx=0;entryDy=0;entryPerimeter=0;endFill=0;" parent="thxEFjQNXHIUthMNDt9b-1" target="ANPe0YaM8eMF2opWlhZN-21" edge="1">
                    <mxGeometry width="50" height="50" relative="1" as="geometry">
                        <mxPoint x="799" y="-539.65" as="sourcePoint"/>
                        <mxPoint x="780" y="-939.65" as="targetPoint"/>
                    </mxGeometry>
                </mxCell>
                <mxCell id="OqO_eJRZsi1mzWAIs8H0-5" value="УСЛ" style="edgeLabel;html=1;align=center;verticalAlign=middle;resizable=0;points=[];fontSize=10;" parent="OqO_eJRZsi1mzWAIs8H0-4" vertex="1" connectable="0">
                    <mxGeometry x="-0.2896" y="-1" relative="1" as="geometry">
                        <mxPoint y="44" as="offset"/>
                    </mxGeometry>
                </mxCell>
                <mxCell id="OqO_eJRZsi1mzWAIs8H0-6" value="УТЛ" style="endArrow=block;html=1;fontSize=10;entryX=0.158;entryY=0.983;entryDx=0;entryDy=0;entryPerimeter=0;endFill=0;" parent="thxEFjQNXHIUthMNDt9b-1" edge="1">
                    <mxGeometry x="-0.875" width="50" height="50" relative="1" as="geometry">
                        <mxPoint x="850" y="-539.65" as="sourcePoint"/>
                        <mxPoint x="850" y="-699.65" as="targetPoint"/>
                        <mxPoint as="offset"/>
                    </mxGeometry>
                </mxCell>
                <mxCell id="OqO_eJRZsi1mzWAIs8H0-8" value="" style="endArrow=classic;html=1;fontSize=10;entryX=0;entryY=1;entryDx=0;entryDy=0;" parent="thxEFjQNXHIUthMNDt9b-1" target="ANPe0YaM8eMF2opWlhZN-21" edge="1">
                    <mxGeometry width="50" height="50" relative="1" as="geometry">
                        <mxPoint x="220" y="-639.65" as="sourcePoint"/>
                        <mxPoint x="780" y="-939.65" as="targetPoint"/>
                        <Array as="points">
                            <mxPoint x="780" y="-639.65"/>
                        </Array>
                    </mxGeometry>
                </mxCell>
                <mxCell id="OqO_eJRZsi1mzWAIs8H0-9" value="ФД" style="endArrow=block;html=1;fontSize=10;endFill=0;" parent="thxEFjQNXHIUthMNDt9b-1" edge="1">
                    <mxGeometry x="-0.75" width="50" height="50" relative="1" as="geometry">
                        <mxPoint x="875" y="-540" as="sourcePoint"/>
                        <mxPoint x="875" y="-700" as="targetPoint"/>
                        <mxPoint as="offset"/>
                    </mxGeometry>
                </mxCell>
                <mxCell id="XSP1ATxzrg9tZABDim-0-0" value="Легенда" style="swimlane;swimlaneLine=0;" parent="thxEFjQNXHIUthMNDt9b-1" vertex="1">
                    <mxGeometry x="50" y="-1560" width="570" height="280" as="geometry"/>
                </mxCell>
                <mxCell id="XSP1ATxzrg9tZABDim-0-1" value="Наименование блока работ&amp;nbsp; (действия)" style="whiteSpace=wrap;html=1;" parent="XSP1ATxzrg9tZABDim-0-0" vertex="1">
                    <mxGeometry x="15" y="40" width="205" height="70" as="geometry"/>
                </mxCell>
                <mxCell id="XSP1ATxzrg9tZABDim-0-2" value="Порядок действия" style="text;html=1;strokeColor=none;fillColor=none;align=center;verticalAlign=middle;whiteSpace=wrap;" parent="XSP1ATxzrg9tZABDim-0-0" vertex="1">
                    <mxGeometry x="105" y="85" width="115" height="30" as="geometry"/>
                </mxCell>
                <mxCell id="XSP1ATxzrg9tZABDim-0-3" value="Данные указаны только на родительской&amp;nbsp; и дочерней схеме" style="text;html=1;strokeColor=none;fillColor=none;align=center;verticalAlign=middle;whiteSpace=wrap;" parent="XSP1ATxzrg9tZABDim-0-0" vertex="1">
                    <mxGeometry x="365" y="50" width="155" height="30" as="geometry"/>
                </mxCell>
                <mxCell id="XSP1ATxzrg9tZABDim-0-4" value="" style="endArrow=classic;html=1;startArrow=oval;startFill=0;" parent="XSP1ATxzrg9tZABDim-0-0" edge="1">
                    <mxGeometry width="50" height="50" relative="1" as="geometry">
                        <mxPoint x="270" y="99.41" as="sourcePoint"/>
                        <mxPoint x="340" y="99.41" as="targetPoint"/>
                    </mxGeometry>
                </mxCell>
                <mxCell id="XSP1ATxzrg9tZABDim-0-5" value="Данные указаны только на родительской схеме" style="text;html=1;strokeColor=none;fillColor=none;align=center;verticalAlign=middle;whiteSpace=wrap;" parent="XSP1ATxzrg9tZABDim-0-0" vertex="1">
                    <mxGeometry x="365" y="85" width="155" height="30" as="geometry"/>
                </mxCell>
                <mxCell id="XSP1ATxzrg9tZABDim-0-6" value="" style="endArrow=block;html=1;endFill=0;" parent="XSP1ATxzrg9tZABDim-0-0" edge="1">
                    <mxGeometry width="50" height="50" relative="1" as="geometry">
                        <mxPoint x="270" y="140" as="sourcePoint"/>
                        <mxPoint x="340" y="140" as="targetPoint"/>
                    </mxGeometry>
                </mxCell>
                <mxCell id="XSP1ATxzrg9tZABDim-0-7" value="Данные указаны только на дочерней схеме" style="text;html=1;strokeColor=none;fillColor=none;align=center;verticalAlign=middle;whiteSpace=wrap;" parent="XSP1ATxzrg9tZABDim-0-0" vertex="1">
                    <mxGeometry x="365" y="130" width="155" height="30" as="geometry"/>
                </mxCell>
                <mxCell id="XSP1ATxzrg9tZABDim-0-8" value="" style="endArrow=classic;html=1;" parent="XSP1ATxzrg9tZABDim-0-0" edge="1">
                    <mxGeometry width="50" height="50" relative="1" as="geometry">
                        <mxPoint x="270" y="64.41" as="sourcePoint"/>
                        <mxPoint x="340" y="64.41" as="targetPoint"/>
                    </mxGeometry>
                </mxCell>
                <mxCell id="XSP1ATxzrg9tZABDim-0-9" value="Справочная информация" style="swimlane;swimlaneLine=0;" parent="thxEFjQNXHIUthMNDt9b-1" vertex="1">
                    <mxGeometry x="640" y="-1560" width="510" height="280" as="geometry">
                        <mxRectangle x="640" y="-1560" width="180" height="23" as="alternateBounds"/>
                    </mxGeometry>
                </mxCell>
                <mxCell id="XSP1ATxzrg9tZABDim-0-10" value="&lt;h1 style=&quot;font-size: 14px&quot;&gt;&lt;font style=&quot;font-size: 14px&quot;&gt;Границы процесса&lt;/font&gt;&lt;/h1&gt;&lt;div style=&quot;font-size: 14px&quot;&gt;&lt;font style=&quot;font-size: 14px&quot;&gt;&lt;b style=&quot;font-size: 14px&quot;&gt;От&lt;/b&gt; планирования закупки&amp;nbsp;&lt;/font&gt;&lt;/div&gt;&lt;div style=&quot;font-size: 14px&quot;&gt;&lt;font style=&quot;font-size: 14px&quot;&gt;&lt;b style=&quot;font-size: 14px&quot;&gt;До&lt;/b&gt; поставки товара на склад&lt;/font&gt;&lt;/div&gt;&lt;div style=&quot;font-size: 14px&quot;&gt;&lt;font style=&quot;font-size: 14px&quot;&gt;&lt;br style=&quot;font-size: 14px&quot;&gt;&lt;/font&gt;&lt;/div&gt;&lt;div style=&quot;font-size: 14px&quot;&gt;&lt;font style=&quot;font-size: 14px&quot;&gt;&lt;b style=&quot;font-size: 14px&quot;&gt;Владельцы процесса:&lt;/b&gt;&lt;/font&gt;&lt;/div&gt;&lt;div style=&quot;font-size: 14px&quot;&gt;&lt;font style=&quot;font-size: 14px&quot;&gt;Дирекция по маркетингу&lt;/font&gt;&lt;/div&gt;&lt;div style=&quot;font-size: 14px&quot;&gt;&lt;font style=&quot;font-size: 14px&quot;&gt;&lt;br style=&quot;font-size: 14px&quot;&gt;&lt;/font&gt;&lt;/div&gt;&lt;div style=&quot;font-size: 14px&quot;&gt;&lt;font style=&quot;font-size: 14px&quot;&gt;&lt;b style=&quot;font-size: 14px&quot;&gt;Уровень процесса: 1&lt;/b&gt;&lt;/font&gt;&lt;/div&gt;&lt;div style=&quot;font-size: 14px&quot;&gt;&lt;font style=&quot;font-size: 14px&quot;&gt;&lt;br style=&quot;font-size: 14px&quot;&gt;&lt;/font&gt;&lt;/div&gt;" style="text;html=1;strokeColor=none;fillColor=none;spacing=5;spacingTop=-20;whiteSpace=wrap;overflow=hidden;rounded=0;fontSize=14;" parent="XSP1ATxzrg9tZABDim-0-9" vertex="1">
                    <mxGeometry x="10" y="30" width="190" height="160" as="geometry"/>
                </mxCell>
                <mxCell id="XSP1ATxzrg9tZABDim-0-11" value="&lt;h1 style=&quot;font-size: 14px&quot;&gt;&lt;font style=&quot;font-size: 14px&quot;&gt;Участники процесса&lt;/font&gt;&lt;/h1&gt;&lt;div style=&quot;font-size: 10px&quot;&gt;&lt;ul&gt;&lt;li&gt;&lt;b&gt;Дирекиця по маркетингу&lt;/b&gt;&lt;/li&gt;&lt;li&gt;&lt;b&gt;Коммерческая дирекция&lt;/b&gt;&lt;/li&gt;&lt;li&gt;&lt;b&gt;Управление транспортной логистики&lt;/b&gt;&lt;/li&gt;&lt;li&gt;&lt;b&gt;Управление складской логистики&lt;/b&gt;&lt;/li&gt;&lt;li&gt;&lt;b&gt;Управление развития бизнес-продуктов&lt;/b&gt;&lt;/li&gt;&lt;li&gt;&lt;b&gt;Финансовая дирекция&lt;/b&gt;&lt;br&gt;&lt;/li&gt;&lt;li&gt;&lt;b&gt;Поставщики&lt;/b&gt;&lt;/li&gt;&lt;li&gt;&lt;b&gt;&quot;Лада-имидж&quot;&lt;/b&gt;&lt;/li&gt;&lt;/ul&gt;&lt;/div&gt;" style="text;html=1;strokeColor=none;fillColor=none;spacing=5;spacingTop=-20;whiteSpace=wrap;overflow=hidden;rounded=0;fontSize=14;" parent="XSP1ATxzrg9tZABDim-0-9" vertex="1">
                    <mxGeometry x="280" y="30" width="190" height="230" as="geometry"/>
                </mxCell>
                <mxCell id="SMmRKVUoKQ8qwU3IodTq-0" value="&lt;h1&gt;Бизнес-процесс закупки товаров ТК Альфа&lt;/h1&gt;&lt;p&gt;&lt;br&gt;&lt;/p&gt;" style="text;html=1;strokeColor=none;fillColor=none;spacing=5;spacingTop=-20;whiteSpace=wrap;overflow=hidden;" parent="thxEFjQNXHIUthMNDt9b-1" vertex="1">
                    <mxGeometry x="40" y="-1620" width="800" height="40" as="geometry"/>
                </mxCell>
                <mxCell id="SMmRKVUoKQ8qwU3IodTq-1" value="" style="endArrow=classic;html=1;fontSize=10;startArrow=oval;startFill=0;" parent="thxEFjQNXHIUthMNDt9b-1" edge="1">
                    <mxGeometry width="50" height="50" relative="1" as="geometry">
                        <mxPoint x="400" y="-1219.65" as="sourcePoint"/>
                        <mxPoint x="400" y="-999.65" as="targetPoint"/>
                    </mxGeometry>
                </mxCell>
                <mxCell id="SMmRKVUoKQ8qwU3IodTq-2" value="Данные о&lt;br&gt;&amp;nbsp;поставщиках" style="edgeLabel;html=1;align=center;verticalAlign=middle;resizable=0;points=[];fontSize=10;" parent="SMmRKVUoKQ8qwU3IodTq-1" vertex="1" connectable="0">
                    <mxGeometry x="-0.5667" y="1" relative="1" as="geometry">
                        <mxPoint x="-1" y="-68" as="offset"/>
                    </mxGeometry>
                </mxCell>
                <mxCell id="InysEzoHjl_jfsx7eJ2s-2" value="" style="endArrow=classic;html=1;entryX=0.875;entryY=0.017;entryDx=0;entryDy=0;entryPerimeter=0;" edge="1" parent="thxEFjQNXHIUthMNDt9b-1" target="ANPe0YaM8eMF2opWlhZN-1">
                    <mxGeometry width="50" height="50" relative="1" as="geometry">
                        <mxPoint x="479" y="-1219.65" as="sourcePoint"/>
                        <mxPoint x="480" y="-1039.65" as="targetPoint"/>
                    </mxGeometry>
                </mxCell>
                <mxCell id="InysEzoHjl_jfsx7eJ2s-3" value="Регламенты и&lt;br&gt;&amp;nbsp;инструкции ТК Альфа" style="edgeLabel;html=1;align=center;verticalAlign=middle;resizable=0;points=[];" vertex="1" connectable="0" parent="InysEzoHjl_jfsx7eJ2s-2">
                    <mxGeometry x="0.5556" y="3" relative="1" as="geometry">
                        <mxPoint x="18" y="-192" as="offset"/>
                    </mxGeometry>
                </mxCell>
                <mxCell id="InysEzoHjl_jfsx7eJ2s-4" value="" style="endArrow=classic;html=1;" edge="1" parent="thxEFjQNXHIUthMNDt9b-1" target="ANPe0YaM8eMF2opWlhZN-21">
                    <mxGeometry width="50" height="50" relative="1" as="geometry">
                        <mxPoint x="839" y="-1220.67" as="sourcePoint"/>
                        <mxPoint x="839" y="-999.65" as="targetPoint"/>
                    </mxGeometry>
                </mxCell>
                <mxCell id="InysEzoHjl_jfsx7eJ2s-5" value="Регламенты и&lt;br&gt;&amp;nbsp;инструкции ТК Альфа" style="edgeLabel;html=1;align=center;verticalAlign=middle;resizable=0;points=[];" vertex="1" connectable="0" parent="InysEzoHjl_jfsx7eJ2s-4">
                    <mxGeometry x="0.5556" y="3" relative="1" as="geometry">
                        <mxPoint x="-3" y="-378" as="offset"/>
                    </mxGeometry>
                </mxCell>
                <mxCell id="eCDtzkFZbZkKDSLzIQ5n-0" value="1" style="text;html=1;strokeColor=none;fillColor=none;align=center;verticalAlign=middle;whiteSpace=wrap;rounded=0;fontStyle=1" vertex="1" parent="thxEFjQNXHIUthMNDt9b-1">
                    <mxGeometry x="259" y="-1081.65" width="60" height="30" as="geometry"/>
                </mxCell>
                <mxCell id="eCDtzkFZbZkKDSLzIQ5n-1" value="2" style="text;html=1;strokeColor=none;fillColor=none;align=center;verticalAlign=middle;whiteSpace=wrap;rounded=0;fontStyle=1" vertex="1" parent="thxEFjQNXHIUthMNDt9b-1">
                    <mxGeometry x="454" y="-961.6500000000001" width="60" height="30" as="geometry"/>
                </mxCell>
                <mxCell id="eCDtzkFZbZkKDSLzIQ5n-2" value="3" style="text;html=1;strokeColor=none;fillColor=none;align=center;verticalAlign=middle;whiteSpace=wrap;rounded=0;fontStyle=1" vertex="1" parent="thxEFjQNXHIUthMNDt9b-1">
                    <mxGeometry x="630" y="-840.6500000000001" width="60" height="30" as="geometry"/>
                </mxCell>
                <mxCell id="eCDtzkFZbZkKDSLzIQ5n-3" value="4" style="text;html=1;strokeColor=none;fillColor=none;align=center;verticalAlign=middle;whiteSpace=wrap;rounded=0;fontStyle=1" vertex="1" parent="thxEFjQNXHIUthMNDt9b-1">
                    <mxGeometry x="860" y="-720.0000000000001" width="60" height="30" as="geometry"/>
                </mxCell>
                <mxCell id="65UPbmlcOxN_64mqx0WK-0" value="Товар на складе" style="endArrow=classic;html=1;exitX=1;exitY=0.25;exitDx=0;exitDy=0;" edge="1" parent="thxEFjQNXHIUthMNDt9b-1">
                    <mxGeometry width="50" height="50" relative="1" as="geometry">
                        <mxPoint x="900" y="-720.6500000000001" as="sourcePoint"/>
                        <mxPoint x="1160" y="-721" as="targetPoint"/>
                    </mxGeometry>
                </mxCell>
            </root>
        </mxGraphModel>
    </diagram>
    <diagram id="iK4SXLqu8suAcHWtHAmi" name="1.1. Планирование закупки">
        <mxGraphModel dx="1204" dy="2444" grid="1" gridSize="10" guides="1" tooltips="1" connect="1" arrows="1" fold="1" page="1" pageScale="1" pageWidth="1169" pageHeight="827" math="0" shadow="0">
            <root>
                <mxCell id="klvTQ97NFb7_BrZnG5LV-0"/>
                <mxCell id="klvTQ97NFb7_BrZnG5LV-1" parent="klvTQ97NFb7_BrZnG5LV-0"/>
                <mxCell id="YGj9ARp9zdSzAjVzuiQ2-0" value="Легенда" style="swimlane;swimlaneLine=0;" vertex="1" parent="klvTQ97NFb7_BrZnG5LV-1">
                    <mxGeometry x="50" y="-1560" width="570" height="280" as="geometry"/>
                </mxCell>
                <mxCell id="YGj9ARp9zdSzAjVzuiQ2-1" value="Наименование блока работ&amp;nbsp; (действия)" style="whiteSpace=wrap;html=1;" vertex="1" parent="YGj9ARp9zdSzAjVzuiQ2-0">
                    <mxGeometry x="15" y="40" width="205" height="70" as="geometry"/>
                </mxCell>
                <mxCell id="YGj9ARp9zdSzAjVzuiQ2-2" value="Порядок действия" style="text;html=1;strokeColor=none;fillColor=none;align=center;verticalAlign=middle;whiteSpace=wrap;" vertex="1" parent="YGj9ARp9zdSzAjVzuiQ2-0">
                    <mxGeometry x="105" y="85" width="115" height="30" as="geometry"/>
                </mxCell>
                <mxCell id="YGj9ARp9zdSzAjVzuiQ2-3" value="Данные указаны только на родительской&amp;nbsp; и дочерней схеме" style="text;html=1;strokeColor=none;fillColor=none;align=center;verticalAlign=middle;whiteSpace=wrap;" vertex="1" parent="YGj9ARp9zdSzAjVzuiQ2-0">
                    <mxGeometry x="365" y="50" width="155" height="30" as="geometry"/>
                </mxCell>
                <mxCell id="YGj9ARp9zdSzAjVzuiQ2-4" value="" style="endArrow=classic;html=1;startArrow=oval;startFill=0;" edge="1" parent="YGj9ARp9zdSzAjVzuiQ2-0">
                    <mxGeometry width="50" height="50" relative="1" as="geometry">
                        <mxPoint x="270" y="99.41" as="sourcePoint"/>
                        <mxPoint x="340" y="99.41" as="targetPoint"/>
                    </mxGeometry>
                </mxCell>
                <mxCell id="YGj9ARp9zdSzAjVzuiQ2-5" value="Данные указаны только на родительской схеме" style="text;html=1;strokeColor=none;fillColor=none;align=center;verticalAlign=middle;whiteSpace=wrap;" vertex="1" parent="YGj9ARp9zdSzAjVzuiQ2-0">
                    <mxGeometry x="365" y="85" width="155" height="30" as="geometry"/>
                </mxCell>
                <mxCell id="YGj9ARp9zdSzAjVzuiQ2-6" value="" style="endArrow=block;html=1;endFill=0;" edge="1" parent="YGj9ARp9zdSzAjVzuiQ2-0">
                    <mxGeometry width="50" height="50" relative="1" as="geometry">
                        <mxPoint x="270" y="140" as="sourcePoint"/>
                        <mxPoint x="340" y="140" as="targetPoint"/>
                    </mxGeometry>
                </mxCell>
                <mxCell id="YGj9ARp9zdSzAjVzuiQ2-7" value="Данные указаны только на дочерней схеме" style="text;html=1;strokeColor=none;fillColor=none;align=center;verticalAlign=middle;whiteSpace=wrap;" vertex="1" parent="YGj9ARp9zdSzAjVzuiQ2-0">
                    <mxGeometry x="365" y="130" width="155" height="30" as="geometry"/>
                </mxCell>
                <mxCell id="YGj9ARp9zdSzAjVzuiQ2-8" value="" style="endArrow=classic;html=1;" edge="1" parent="YGj9ARp9zdSzAjVzuiQ2-0">
                    <mxGeometry width="50" height="50" relative="1" as="geometry">
                        <mxPoint x="270" y="64.41" as="sourcePoint"/>
                        <mxPoint x="340" y="64.41" as="targetPoint"/>
                    </mxGeometry>
                </mxCell>
                <mxCell id="YGj9ARp9zdSzAjVzuiQ2-9" value="Справочная информация" style="swimlane;swimlaneLine=0;" vertex="1" parent="klvTQ97NFb7_BrZnG5LV-1">
                    <mxGeometry x="640" y="-1560" width="510" height="280" as="geometry">
                        <mxRectangle x="640" y="-1560" width="180" height="23" as="alternateBounds"/>
                    </mxGeometry>
                </mxCell>
                <mxCell id="YGj9ARp9zdSzAjVzuiQ2-10" value="&lt;h1 style=&quot;font-size: 14px&quot;&gt;&lt;font style=&quot;font-size: 14px&quot;&gt;Границы процесса&lt;/font&gt;&lt;/h1&gt;&lt;div style=&quot;font-size: 14px&quot;&gt;&lt;font style=&quot;font-size: 14px&quot;&gt;&lt;b style=&quot;font-size: 14px&quot;&gt;От&lt;/b&gt;&amp;nbsp;анализа данных&amp;nbsp;&lt;/font&gt;&lt;/div&gt;&lt;div style=&quot;font-size: 14px&quot;&gt;&lt;font style=&quot;font-size: 14px&quot;&gt;&lt;b style=&quot;font-size: 14px&quot;&gt;До&lt;/b&gt; согласования плана закупок&lt;/font&gt;&lt;/div&gt;&lt;div style=&quot;font-size: 14px&quot;&gt;&lt;font style=&quot;font-size: 14px&quot;&gt;&lt;br style=&quot;font-size: 14px&quot;&gt;&lt;/font&gt;&lt;/div&gt;&lt;div style=&quot;font-size: 14px&quot;&gt;&lt;font style=&quot;font-size: 14px&quot;&gt;&lt;b style=&quot;font-size: 14px&quot;&gt;Владельцы процесса:&lt;/b&gt;&lt;/font&gt;&lt;/div&gt;&lt;div style=&quot;font-size: 14px&quot;&gt;&lt;font style=&quot;font-size: 14px&quot;&gt;Дирекция по маркетингу&lt;/font&gt;&lt;/div&gt;&lt;div style=&quot;font-size: 14px&quot;&gt;&lt;font style=&quot;font-size: 14px&quot;&gt;&lt;br style=&quot;font-size: 14px&quot;&gt;&lt;/font&gt;&lt;/div&gt;&lt;div style=&quot;font-size: 14px&quot;&gt;&lt;font style=&quot;font-size: 14px&quot;&gt;&lt;b style=&quot;font-size: 14px&quot;&gt;Уровень процесса: 2&lt;/b&gt;&lt;/font&gt;&lt;/div&gt;&lt;div style=&quot;font-size: 14px&quot;&gt;&lt;font style=&quot;font-size: 14px&quot;&gt;&lt;br style=&quot;font-size: 14px&quot;&gt;&lt;/font&gt;&lt;/div&gt;" style="text;html=1;strokeColor=none;fillColor=none;spacing=5;spacingTop=-20;whiteSpace=wrap;overflow=hidden;rounded=0;fontSize=14;" vertex="1" parent="YGj9ARp9zdSzAjVzuiQ2-9">
                    <mxGeometry x="10" y="30" width="190" height="160" as="geometry"/>
                </mxCell>
                <mxCell id="YGj9ARp9zdSzAjVzuiQ2-11" value="&lt;h1 style=&quot;font-size: 14px&quot;&gt;&lt;font style=&quot;font-size: 14px&quot;&gt;Участники процесса&lt;/font&gt;&lt;/h1&gt;&lt;div style=&quot;font-size: 10px&quot;&gt;&lt;ul&gt;&lt;li&gt;&lt;b&gt;Дирекиця по маркетингу&lt;/b&gt;&lt;/li&gt;&lt;li&gt;&lt;b&gt;Коммерческая дирекция&lt;/b&gt;&lt;/li&gt;&lt;li&gt;&lt;b&gt;&quot;Лада-имидж&quot;&lt;/b&gt;&lt;/li&gt;&lt;/ul&gt;&lt;/div&gt;" style="text;html=1;strokeColor=none;fillColor=none;spacing=5;spacingTop=-20;whiteSpace=wrap;overflow=hidden;rounded=0;fontSize=14;" vertex="1" parent="YGj9ARp9zdSzAjVzuiQ2-9">
                    <mxGeometry x="280" y="30" width="190" height="230" as="geometry"/>
                </mxCell>
                <mxCell id="YGj9ARp9zdSzAjVzuiQ2-12" value="&lt;h1&gt;Бизнес-процесс закупки товаров ТК Альфа: 1.1. Планирование закупки&lt;/h1&gt;" style="text;html=1;strokeColor=none;fillColor=none;spacing=5;spacingTop=-20;whiteSpace=wrap;overflow=hidden;" vertex="1" parent="klvTQ97NFb7_BrZnG5LV-1">
                    <mxGeometry x="40" y="-1640" width="1130" height="60" as="geometry"/>
                </mxCell>
                <mxCell id="2U_fwsMv2b74byUjb4O--0" value="Анализ данных" style="rounded=0;whiteSpace=wrap;html=1;" vertex="1" parent="klvTQ97NFb7_BrZnG5LV-1">
                    <mxGeometry x="180" y="-1119.65" width="120" height="60" as="geometry"/>
                </mxCell>
                <mxCell id="0Rhb_eGMEwrppa1eDsBs-1" value="Потребность &lt;br&gt;покупателей" style="endArrow=block;html=1;endFill=0;startArrow=none;startFill=0;" edge="1" parent="klvTQ97NFb7_BrZnG5LV-1">
                    <mxGeometry x="-0.2857" width="50" height="50" relative="1" as="geometry">
                        <mxPoint x="40" y="-1072" as="sourcePoint"/>
                        <mxPoint x="180" y="-1072" as="targetPoint"/>
                        <Array as="points">
                            <mxPoint x="90" y="-1072"/>
                        </Array>
                        <mxPoint as="offset"/>
                    </mxGeometry>
                </mxCell>
                <mxCell id="xDUsfosBUvLfJzft8hpu-0" value="" style="endArrow=classic;html=1;" edge="1" parent="klvTQ97NFb7_BrZnG5LV-1">
                    <mxGeometry width="50" height="50" relative="1" as="geometry">
                        <mxPoint x="40" y="-1104" as="sourcePoint"/>
                        <mxPoint x="180" y="-1103.65" as="targetPoint"/>
                    </mxGeometry>
                </mxCell>
                <mxCell id="xDUsfosBUvLfJzft8hpu-1" value="Статистика продаж" style="edgeLabel;html=1;align=center;verticalAlign=middle;resizable=0;points=[];" vertex="1" connectable="0" parent="xDUsfosBUvLfJzft8hpu-0">
                    <mxGeometry x="-0.3" relative="1" as="geometry">
                        <mxPoint x="11" as="offset"/>
                    </mxGeometry>
                </mxCell>
                <mxCell id="YpQpAMiZ66DmnXBOhnRF-0" value="" style="endArrow=classic;html=1;entryX=0.5;entryY=0;entryDx=0;entryDy=0;" edge="1" parent="klvTQ97NFb7_BrZnG5LV-1">
                    <mxGeometry width="50" height="50" relative="1" as="geometry">
                        <mxPoint x="210" y="-1219.65" as="sourcePoint"/>
                        <mxPoint x="210" y="-1119.65" as="targetPoint"/>
                    </mxGeometry>
                </mxCell>
                <mxCell id="YpQpAMiZ66DmnXBOhnRF-1" value="ГБ" style="edgeLabel;html=1;align=center;verticalAlign=middle;resizable=0;points=[];" vertex="1" connectable="0" parent="YpQpAMiZ66DmnXBOhnRF-0">
                    <mxGeometry x="0.5556" y="3" relative="1" as="geometry">
                        <mxPoint y="-88" as="offset"/>
                    </mxGeometry>
                </mxCell>
                <mxCell id="YpQpAMiZ66DmnXBOhnRF-2" value="" style="endArrow=classic;html=1;entryX=0.5;entryY=0;entryDx=0;entryDy=0;" edge="1" parent="klvTQ97NFb7_BrZnG5LV-1">
                    <mxGeometry width="50" height="50" relative="1" as="geometry">
                        <mxPoint x="290" y="-1219.65" as="sourcePoint"/>
                        <mxPoint x="290" y="-1119.65" as="targetPoint"/>
                    </mxGeometry>
                </mxCell>
                <mxCell id="YpQpAMiZ66DmnXBOhnRF-3" value="Регламенты и&lt;br&gt;&amp;nbsp;инструкции ТК Альфа" style="edgeLabel;html=1;align=center;verticalAlign=middle;resizable=0;points=[];" vertex="1" connectable="0" parent="YpQpAMiZ66DmnXBOhnRF-2">
                    <mxGeometry x="0.5556" y="3" relative="1" as="geometry">
                        <mxPoint x="2" y="-98" as="offset"/>
                    </mxGeometry>
                </mxCell>
                <mxCell id="GGv_qHB-xEoUFfekuVzH-0" value="Выявление потребности в в закупке" style="rounded=0;whiteSpace=wrap;html=1;" vertex="1" parent="klvTQ97NFb7_BrZnG5LV-1">
                    <mxGeometry x="400" y="-1040" width="120" height="60" as="geometry"/>
                </mxCell>
                <mxCell id="GGv_qHB-xEoUFfekuVzH-1" value="" style="endArrow=classic;html=1;exitX=1;exitY=0.5;exitDx=0;exitDy=0;entryX=0;entryY=0.5;entryDx=0;entryDy=0;" edge="1" parent="klvTQ97NFb7_BrZnG5LV-1" source="2U_fwsMv2b74byUjb4O--0" target="GGv_qHB-xEoUFfekuVzH-0">
                    <mxGeometry width="50" height="50" relative="1" as="geometry">
                        <mxPoint x="560" y="-1220" as="sourcePoint"/>
                        <mxPoint x="610" y="-1270" as="targetPoint"/>
                        <Array as="points">
                            <mxPoint x="350" y="-1090"/>
                            <mxPoint x="350" y="-1050"/>
                            <mxPoint x="350" y="-1010"/>
                        </Array>
                    </mxGeometry>
                </mxCell>
                <mxCell id="GDltzvwIs6qbgDuEycGG-0" value="Ассортиментная матрица,&lt;br&gt;&amp;nbsp;данные по нормативам &lt;br&gt;и глубине запасов" style="edgeLabel;html=1;align=center;verticalAlign=middle;resizable=0;points=[];" vertex="1" connectable="0" parent="GGv_qHB-xEoUFfekuVzH-1">
                    <mxGeometry x="-0.5893" y="-5" relative="1" as="geometry">
                        <mxPoint x="53" y="-25" as="offset"/>
                    </mxGeometry>
                </mxCell>
                <mxCell id="GGv_qHB-xEoUFfekuVzH-2" value="Формирование и согласование плана" style="rounded=0;whiteSpace=wrap;html=1;" vertex="1" parent="klvTQ97NFb7_BrZnG5LV-1">
                    <mxGeometry x="640" y="-950" width="120" height="60" as="geometry"/>
                </mxCell>
                <mxCell id="GGv_qHB-xEoUFfekuVzH-3" value="" style="endArrow=classic;html=1;exitX=1;exitY=0.5;exitDx=0;exitDy=0;entryX=0;entryY=0.5;entryDx=0;entryDy=0;" edge="1" parent="klvTQ97NFb7_BrZnG5LV-1" source="GGv_qHB-xEoUFfekuVzH-0" target="GGv_qHB-xEoUFfekuVzH-2">
                    <mxGeometry width="50" height="50" relative="1" as="geometry">
                        <mxPoint x="560" y="-1010" as="sourcePoint"/>
                        <mxPoint x="610" y="-1060" as="targetPoint"/>
                        <Array as="points">
                            <mxPoint x="560" y="-1010"/>
                            <mxPoint x="560" y="-920"/>
                        </Array>
                    </mxGeometry>
                </mxCell>
                <mxCell id="GGv_qHB-xEoUFfekuVzH-4" value="1.1." style="text;html=1;strokeColor=none;fillColor=none;align=center;verticalAlign=middle;whiteSpace=wrap;rounded=0;fontStyle=1" vertex="1" parent="klvTQ97NFb7_BrZnG5LV-1">
                    <mxGeometry x="257" y="-1081" width="60" height="30" as="geometry"/>
                </mxCell>
                <mxCell id="GGv_qHB-xEoUFfekuVzH-5" value="1.2." style="text;html=1;strokeColor=none;fillColor=none;align=center;verticalAlign=middle;whiteSpace=wrap;rounded=0;fontStyle=1" vertex="1" parent="klvTQ97NFb7_BrZnG5LV-1">
                    <mxGeometry x="480" y="-1000" width="60" height="30" as="geometry"/>
                </mxCell>
                <mxCell id="GGv_qHB-xEoUFfekuVzH-6" value="1.3." style="text;html=1;strokeColor=none;fillColor=none;align=center;verticalAlign=middle;whiteSpace=wrap;rounded=0;fontStyle=1" vertex="1" parent="klvTQ97NFb7_BrZnG5LV-1">
                    <mxGeometry x="720" y="-910" width="60" height="30" as="geometry"/>
                </mxCell>
                <mxCell id="guISl0DXQXYUvB_jFc6i-0" value="" style="endArrow=classic;html=1;entryX=0.5;entryY=0;entryDx=0;entryDy=0;" edge="1" parent="klvTQ97NFb7_BrZnG5LV-1" target="GGv_qHB-xEoUFfekuVzH-0">
                    <mxGeometry width="50" height="50" relative="1" as="geometry">
                        <mxPoint x="290" y="-1220" as="sourcePoint"/>
                        <mxPoint x="610" y="-1160" as="targetPoint"/>
                        <Array as="points">
                            <mxPoint x="290" y="-1180"/>
                            <mxPoint x="460" y="-1180"/>
                        </Array>
                    </mxGeometry>
                </mxCell>
                <mxCell id="guISl0DXQXYUvB_jFc6i-1" value="" style="endArrow=classic;html=1;entryX=0.5;entryY=0;entryDx=0;entryDy=0;" edge="1" parent="klvTQ97NFb7_BrZnG5LV-1" target="GGv_qHB-xEoUFfekuVzH-2">
                    <mxGeometry width="50" height="50" relative="1" as="geometry">
                        <mxPoint x="440" y="-1180" as="sourcePoint"/>
                        <mxPoint x="610" y="-1160" as="targetPoint"/>
                        <Array as="points">
                            <mxPoint x="700" y="-1180"/>
                        </Array>
                    </mxGeometry>
                </mxCell>
                <mxCell id="guISl0DXQXYUvB_jFc6i-3" value="" style="endArrow=classic;html=1;" edge="1" parent="klvTQ97NFb7_BrZnG5LV-1">
                    <mxGeometry width="50" height="50" relative="1" as="geometry">
                        <mxPoint x="720" y="-1230" as="sourcePoint"/>
                        <mxPoint x="720" y="-950" as="targetPoint"/>
                    </mxGeometry>
                </mxCell>
                <mxCell id="guISl0DXQXYUvB_jFc6i-4" value="ГБ" style="edgeLabel;html=1;align=center;verticalAlign=middle;resizable=0;points=[];" vertex="1" connectable="0" parent="guISl0DXQXYUvB_jFc6i-3">
                    <mxGeometry x="0.5556" y="3" relative="1" as="geometry">
                        <mxPoint x="-3" y="-218" as="offset"/>
                    </mxGeometry>
                </mxCell>
                <mxCell id="ISoxzm5_eVUktxo1aA7w-0" value="" style="endArrow=classic;html=1;entryX=0.017;entryY=0.65;entryDx=0;entryDy=0;entryPerimeter=0;" edge="1" parent="klvTQ97NFb7_BrZnG5LV-1" target="GGv_qHB-xEoUFfekuVzH-0">
                    <mxGeometry width="50" height="50" relative="1" as="geometry">
                        <mxPoint x="40" y="-1001" as="sourcePoint"/>
                        <mxPoint x="210" y="-1000" as="targetPoint"/>
                    </mxGeometry>
                </mxCell>
                <mxCell id="ISoxzm5_eVUktxo1aA7w-1" value="Заказ покупателя" style="edgeLabel;html=1;align=center;verticalAlign=middle;resizable=0;points=[];" vertex="1" connectable="0" parent="ISoxzm5_eVUktxo1aA7w-0">
                    <mxGeometry x="-0.3" relative="1" as="geometry">
                        <mxPoint x="-77" y="1" as="offset"/>
                    </mxGeometry>
                </mxCell>
                <mxCell id="GDltzvwIs6qbgDuEycGG-1" value="Потребность в закупке" style="text;html=1;align=center;verticalAlign=middle;resizable=0;points=[];autosize=1;strokeColor=none;fillColor=none;" vertex="1" parent="klvTQ97NFb7_BrZnG5LV-1">
                    <mxGeometry x="500" y="-970" width="140" height="20" as="geometry"/>
                </mxCell>
                <mxCell id="GDltzvwIs6qbgDuEycGG-2" value="" style="endArrow=classic;html=1;exitX=1;exitY=0.5;exitDx=0;exitDy=0;" edge="1" parent="klvTQ97NFb7_BrZnG5LV-1" source="GGv_qHB-xEoUFfekuVzH-2">
                    <mxGeometry width="50" height="50" relative="1" as="geometry">
                        <mxPoint x="560" y="-1030" as="sourcePoint"/>
                        <mxPoint x="900" y="-920" as="targetPoint"/>
                    </mxGeometry>
                </mxCell>
                <mxCell id="GDltzvwIs6qbgDuEycGG-3" value="План закупок &lt;br&gt;на период" style="edgeLabel;html=1;align=center;verticalAlign=middle;resizable=0;points=[];" vertex="1" connectable="0" parent="GDltzvwIs6qbgDuEycGG-2">
                    <mxGeometry x="-0.3571" y="3" relative="1" as="geometry">
                        <mxPoint as="offset"/>
                    </mxGeometry>
                </mxCell>
                <mxCell id="WxveeZsZ8sBYHqgQF53k-0" value="" style="endArrow=classic;html=1;entryX=0.25;entryY=1;entryDx=0;entryDy=0;" edge="1" parent="klvTQ97NFb7_BrZnG5LV-1" target="2U_fwsMv2b74byUjb4O--0">
                    <mxGeometry width="50" height="50" relative="1" as="geometry">
                        <mxPoint x="210" y="-840" as="sourcePoint"/>
                        <mxPoint x="610" y="-1080" as="targetPoint"/>
                    </mxGeometry>
                </mxCell>
                <mxCell id="WxveeZsZ8sBYHqgQF53k-1" value="Сотрудники ДпМ" style="edgeLabel;html=1;align=center;verticalAlign=middle;resizable=0;points=[];" vertex="1" connectable="0" parent="WxveeZsZ8sBYHqgQF53k-0">
                    <mxGeometry x="-0.7177" y="3" relative="1" as="geometry">
                        <mxPoint as="offset"/>
                    </mxGeometry>
                </mxCell>
                <mxCell id="GlyUMTIUHc4zrWLa8W2s-0" value="" style="endArrow=classic;html=1;" edge="1" parent="klvTQ97NFb7_BrZnG5LV-1">
                    <mxGeometry width="50" height="50" relative="1" as="geometry">
                        <mxPoint x="257" y="-840" as="sourcePoint"/>
                        <mxPoint x="257" y="-1060" as="targetPoint"/>
                    </mxGeometry>
                </mxCell>
                <mxCell id="GlyUMTIUHc4zrWLa8W2s-1" value="ПК, ПО, &lt;br&gt;средства связи" style="edgeLabel;html=1;align=center;verticalAlign=middle;resizable=0;points=[];" vertex="1" connectable="0" parent="GlyUMTIUHc4zrWLa8W2s-0">
                    <mxGeometry x="-0.1327" y="1" relative="1" as="geometry">
                        <mxPoint y="38" as="offset"/>
                    </mxGeometry>
                </mxCell>
                <mxCell id="GlyUMTIUHc4zrWLa8W2s-2" value="" style="endArrow=classic;html=1;entryX=0.5;entryY=1;entryDx=0;entryDy=0;" edge="1" parent="klvTQ97NFb7_BrZnG5LV-1" target="GGv_qHB-xEoUFfekuVzH-0">
                    <mxGeometry width="50" height="50" relative="1" as="geometry">
                        <mxPoint x="260" y="-880" as="sourcePoint"/>
                        <mxPoint x="610" y="-1090" as="targetPoint"/>
                        <Array as="points">
                            <mxPoint x="460" y="-880"/>
                        </Array>
                    </mxGeometry>
                </mxCell>
                <mxCell id="GlyUMTIUHc4zrWLa8W2s-3" value="КД" style="endArrow=block;html=1;entryX=0.317;entryY=1.017;entryDx=0;entryDy=0;entryPerimeter=0;endFill=0;" edge="1" parent="klvTQ97NFb7_BrZnG5LV-1" target="GGv_qHB-xEoUFfekuVzH-2">
                    <mxGeometry width="50" height="50" relative="1" as="geometry">
                        <mxPoint x="678" y="-840" as="sourcePoint"/>
                        <mxPoint x="610" y="-1090" as="targetPoint"/>
                    </mxGeometry>
                </mxCell>
                <mxCell id="GlyUMTIUHc4zrWLa8W2s-4" value="ЛИ" style="endArrow=block;html=1;entryX=0.317;entryY=1.017;entryDx=0;entryDy=0;entryPerimeter=0;endFill=0;" edge="1" parent="klvTQ97NFb7_BrZnG5LV-1">
                    <mxGeometry width="50" height="50" relative="1" as="geometry">
                        <mxPoint x="730" y="-841.02" as="sourcePoint"/>
                        <mxPoint x="730.04" y="-890" as="targetPoint"/>
                    </mxGeometry>
                </mxCell>
                <mxCell id="GlyUMTIUHc4zrWLa8W2s-5" value="" style="endArrow=classic;html=1;entryX=0.25;entryY=1;entryDx=0;entryDy=0;" edge="1" parent="klvTQ97NFb7_BrZnG5LV-1" target="GGv_qHB-xEoUFfekuVzH-0">
                    <mxGeometry width="50" height="50" relative="1" as="geometry">
                        <mxPoint x="210" y="-880" as="sourcePoint"/>
                        <mxPoint x="610" y="-1090" as="targetPoint"/>
                        <Array as="points">
                            <mxPoint x="430" y="-880"/>
                        </Array>
                    </mxGeometry>
                </mxCell>
                <mxCell id="GlyUMTIUHc4zrWLa8W2s-6" value="" style="endArrow=classic;html=1;" edge="1" parent="klvTQ97NFb7_BrZnG5LV-1">
                    <mxGeometry width="50" height="50" relative="1" as="geometry">
                        <mxPoint x="210" y="-850" as="sourcePoint"/>
                        <mxPoint x="650" y="-890" as="targetPoint"/>
                        <Array as="points">
                            <mxPoint x="651" y="-850"/>
                            <mxPoint x="650" y="-870"/>
                        </Array>
                    </mxGeometry>
                </mxCell>
            </root>
        </mxGraphModel>
    </diagram>
    <diagram id="mt32UHBM_45hKR1OqnE-" name="2.1. Выбор поставщика">
        <mxGraphModel dx="1204" dy="2444" grid="1" gridSize="10" guides="1" tooltips="1" connect="1" arrows="1" fold="1" page="1" pageScale="1" pageWidth="1169" pageHeight="827" math="0" shadow="0">
            <root>
                <mxCell id="mgMbw3N9WoBOFDehNYmM-0"/>
                <mxCell id="mgMbw3N9WoBOFDehNYmM-1" parent="mgMbw3N9WoBOFDehNYmM-0"/>
                <mxCell id="bMWe_zczPxhw1VhkTIGE-0" value="Легенда" style="swimlane;swimlaneLine=0;" vertex="1" parent="mgMbw3N9WoBOFDehNYmM-1">
                    <mxGeometry x="50" y="-1560" width="570" height="280" as="geometry"/>
                </mxCell>
                <mxCell id="bMWe_zczPxhw1VhkTIGE-1" value="Наименование блока работ&amp;nbsp; (действия)" style="whiteSpace=wrap;html=1;" vertex="1" parent="bMWe_zczPxhw1VhkTIGE-0">
                    <mxGeometry x="15" y="40" width="205" height="70" as="geometry"/>
                </mxCell>
                <mxCell id="bMWe_zczPxhw1VhkTIGE-2" value="Порядок действия" style="text;html=1;strokeColor=none;fillColor=none;align=center;verticalAlign=middle;whiteSpace=wrap;" vertex="1" parent="bMWe_zczPxhw1VhkTIGE-0">
                    <mxGeometry x="105" y="85" width="115" height="30" as="geometry"/>
                </mxCell>
                <mxCell id="bMWe_zczPxhw1VhkTIGE-3" value="Данные указаны только на родительской&amp;nbsp; и дочерней схеме" style="text;html=1;strokeColor=none;fillColor=none;align=center;verticalAlign=middle;whiteSpace=wrap;" vertex="1" parent="bMWe_zczPxhw1VhkTIGE-0">
                    <mxGeometry x="365" y="50" width="155" height="30" as="geometry"/>
                </mxCell>
                <mxCell id="bMWe_zczPxhw1VhkTIGE-4" value="" style="endArrow=classic;html=1;startArrow=oval;startFill=0;" edge="1" parent="bMWe_zczPxhw1VhkTIGE-0">
                    <mxGeometry width="50" height="50" relative="1" as="geometry">
                        <mxPoint x="270" y="99.41" as="sourcePoint"/>
                        <mxPoint x="340" y="99.41" as="targetPoint"/>
                    </mxGeometry>
                </mxCell>
                <mxCell id="bMWe_zczPxhw1VhkTIGE-5" value="Данные указаны только на родительской схеме" style="text;html=1;strokeColor=none;fillColor=none;align=center;verticalAlign=middle;whiteSpace=wrap;" vertex="1" parent="bMWe_zczPxhw1VhkTIGE-0">
                    <mxGeometry x="365" y="85" width="155" height="30" as="geometry"/>
                </mxCell>
                <mxCell id="bMWe_zczPxhw1VhkTIGE-6" value="" style="endArrow=block;html=1;endFill=0;" edge="1" parent="bMWe_zczPxhw1VhkTIGE-0">
                    <mxGeometry width="50" height="50" relative="1" as="geometry">
                        <mxPoint x="270" y="140" as="sourcePoint"/>
                        <mxPoint x="340" y="140" as="targetPoint"/>
                    </mxGeometry>
                </mxCell>
                <mxCell id="bMWe_zczPxhw1VhkTIGE-7" value="Данные указаны только на дочерней схеме" style="text;html=1;strokeColor=none;fillColor=none;align=center;verticalAlign=middle;whiteSpace=wrap;" vertex="1" parent="bMWe_zczPxhw1VhkTIGE-0">
                    <mxGeometry x="365" y="130" width="155" height="30" as="geometry"/>
                </mxCell>
                <mxCell id="bMWe_zczPxhw1VhkTIGE-8" value="" style="endArrow=classic;html=1;" edge="1" parent="bMWe_zczPxhw1VhkTIGE-0">
                    <mxGeometry width="50" height="50" relative="1" as="geometry">
                        <mxPoint x="270" y="64.41" as="sourcePoint"/>
                        <mxPoint x="340" y="64.41" as="targetPoint"/>
                    </mxGeometry>
                </mxCell>
                <mxCell id="bMWe_zczPxhw1VhkTIGE-9" value="Справочная информация" style="swimlane;swimlaneLine=0;" vertex="1" parent="mgMbw3N9WoBOFDehNYmM-1">
                    <mxGeometry x="640" y="-1560" width="510" height="280" as="geometry">
                        <mxRectangle x="640" y="-1560" width="180" height="23" as="alternateBounds"/>
                    </mxGeometry>
                </mxCell>
                <mxCell id="bMWe_zczPxhw1VhkTIGE-10" value="&lt;h1 style=&quot;font-size: 14px&quot;&gt;&lt;font style=&quot;font-size: 14px&quot;&gt;Границы процесса&lt;/font&gt;&lt;/h1&gt;&lt;div style=&quot;font-size: 14px&quot;&gt;&lt;font style=&quot;font-size: 14px&quot;&gt;&lt;b style=&quot;font-size: 14px&quot;&gt;От&lt;/b&gt;&amp;nbsp;мониторинга поставщиков&amp;nbsp;&lt;/font&gt;&lt;/div&gt;&lt;div style=&quot;font-size: 14px&quot;&gt;&lt;font style=&quot;font-size: 14px&quot;&gt;&lt;b style=&quot;font-size: 14px&quot;&gt;До&lt;/b&gt; списка потенциальных поставщиков&lt;/font&gt;&lt;/div&gt;&lt;div style=&quot;font-size: 14px&quot;&gt;&lt;font style=&quot;font-size: 14px&quot;&gt;&lt;br style=&quot;font-size: 14px&quot;&gt;&lt;/font&gt;&lt;/div&gt;&lt;div style=&quot;font-size: 14px&quot;&gt;&lt;font style=&quot;font-size: 14px&quot;&gt;&lt;b style=&quot;font-size: 14px&quot;&gt;Владельцы процесса:&lt;/b&gt;&lt;/font&gt;&lt;/div&gt;&lt;div style=&quot;font-size: 14px&quot;&gt;&lt;font style=&quot;font-size: 14px&quot;&gt;Дирекция по маркетингу&lt;/font&gt;&lt;/div&gt;&lt;div style=&quot;font-size: 14px&quot;&gt;&lt;font style=&quot;font-size: 14px&quot;&gt;&lt;br style=&quot;font-size: 14px&quot;&gt;&lt;/font&gt;&lt;/div&gt;&lt;div style=&quot;font-size: 14px&quot;&gt;&lt;font style=&quot;font-size: 14px&quot;&gt;&lt;b style=&quot;font-size: 14px&quot;&gt;Уровень процесса: 2&lt;/b&gt;&lt;/font&gt;&lt;/div&gt;&lt;div style=&quot;font-size: 14px&quot;&gt;&lt;font style=&quot;font-size: 14px&quot;&gt;&lt;br style=&quot;font-size: 14px&quot;&gt;&lt;/font&gt;&lt;/div&gt;" style="text;html=1;strokeColor=none;fillColor=none;spacing=5;spacingTop=-20;whiteSpace=wrap;overflow=hidden;rounded=0;fontSize=14;" vertex="1" parent="bMWe_zczPxhw1VhkTIGE-9">
                    <mxGeometry x="10" y="30" width="190" height="160" as="geometry"/>
                </mxCell>
                <mxCell id="bMWe_zczPxhw1VhkTIGE-11" value="&lt;h1 style=&quot;font-size: 14px&quot;&gt;&lt;font style=&quot;font-size: 14px&quot;&gt;Участники процесса&lt;/font&gt;&lt;/h1&gt;&lt;div style=&quot;font-size: 10px&quot;&gt;&lt;ul&gt;&lt;li&gt;&lt;b&gt;Дирекиця по маркетингу&lt;/b&gt;&lt;/li&gt;&lt;li&gt;&lt;b&gt;Коммерческая дирекция&lt;/b&gt;&lt;/li&gt;&lt;li&gt;&lt;b&gt;Управление транспортной логистики&lt;/b&gt;&lt;/li&gt;&lt;li&gt;&lt;b&gt;Управление складской логистики&lt;/b&gt;&lt;/li&gt;&lt;li&gt;&lt;b&gt;Управление развития бизнес-продуктов&lt;/b&gt;&lt;/li&gt;&lt;li&gt;&lt;b&gt;Финансовая дирекция&lt;/b&gt;&lt;br&gt;&lt;/li&gt;&lt;li&gt;&lt;b&gt;Поставщики&lt;/b&gt;&lt;/li&gt;&lt;li&gt;&lt;b&gt;&quot;Лада-имидж&quot;&lt;/b&gt;&lt;/li&gt;&lt;/ul&gt;&lt;/div&gt;" style="text;html=1;strokeColor=none;fillColor=none;spacing=5;spacingTop=-20;whiteSpace=wrap;overflow=hidden;rounded=0;fontSize=14;" vertex="1" parent="bMWe_zczPxhw1VhkTIGE-9">
                    <mxGeometry x="280" y="30" width="190" height="230" as="geometry"/>
                </mxCell>
                <mxCell id="bMWe_zczPxhw1VhkTIGE-12" value="&lt;h1&gt;Бизнес-процесс закупки товаров ТК Альфа: 2.1. Выбор поставщика&lt;/h1&gt;" style="text;html=1;strokeColor=none;fillColor=none;spacing=5;spacingTop=-20;whiteSpace=wrap;overflow=hidden;" vertex="1" parent="mgMbw3N9WoBOFDehNYmM-1">
                    <mxGeometry x="40" y="-1640" width="1130" height="60" as="geometry"/>
                </mxCell>
                <mxCell id="_UHxchRUuSk7AmpYm-H_-0" value="Подготовка списка возможных поставщиков" style="rounded=0;whiteSpace=wrap;html=1;" vertex="1" parent="mgMbw3N9WoBOFDehNYmM-1">
                    <mxGeometry x="275" y="-1200" width="125" height="60" as="geometry"/>
                </mxCell>
                <mxCell id="_UHxchRUuSk7AmpYm-H_-1" value="" style="endArrow=classic;html=1;entryX=0.017;entryY=0.883;entryDx=0;entryDy=0;entryPerimeter=0;" edge="1" parent="mgMbw3N9WoBOFDehNYmM-1" target="_UHxchRUuSk7AmpYm-H_-0">
                    <mxGeometry width="50" height="50" relative="1" as="geometry">
                        <mxPoint x="30" y="-1146" as="sourcePoint"/>
                        <mxPoint x="340" y="-1146" as="targetPoint"/>
                    </mxGeometry>
                </mxCell>
                <mxCell id="_UHxchRUuSk7AmpYm-H_-2" value="Заказ покупателя" style="edgeLabel;html=1;align=center;verticalAlign=middle;resizable=0;points=[];" vertex="1" connectable="0" parent="_UHxchRUuSk7AmpYm-H_-1">
                    <mxGeometry x="-0.3" relative="1" as="geometry">
                        <mxPoint x="14" as="offset"/>
                    </mxGeometry>
                </mxCell>
                <mxCell id="_UHxchRUuSk7AmpYm-H_-3" value="Предложение поставщика&lt;br&gt;&amp;nbsp;(прайс-лист)" style="endArrow=classic;html=1;entryX=0;entryY=0.5;entryDx=0;entryDy=0;" edge="1" parent="mgMbw3N9WoBOFDehNYmM-1" target="_UHxchRUuSk7AmpYm-H_-0">
                    <mxGeometry x="-0.1382" width="50" height="50" relative="1" as="geometry">
                        <mxPoint x="34" y="-1170.5" as="sourcePoint"/>
                        <mxPoint x="270" y="-1170" as="targetPoint"/>
                        <mxPoint as="offset"/>
                    </mxGeometry>
                </mxCell>
                <mxCell id="_UHxchRUuSk7AmpYm-H_-4" value="Отправка запросов" style="rounded=0;whiteSpace=wrap;html=1;" vertex="1" parent="mgMbw3N9WoBOFDehNYmM-1">
                    <mxGeometry x="440" y="-1120" width="120" height="60" as="geometry"/>
                </mxCell>
                <mxCell id="_UHxchRUuSk7AmpYm-H_-5" value="Получение предложений от возможных поставщиков" style="rounded=0;whiteSpace=wrap;html=1;" vertex="1" parent="mgMbw3N9WoBOFDehNYmM-1">
                    <mxGeometry x="600" y="-1040" width="120" height="60" as="geometry"/>
                </mxCell>
                <mxCell id="_UHxchRUuSk7AmpYm-H_-6" value="Оценка и согласование предложений" style="rounded=0;whiteSpace=wrap;html=1;" vertex="1" parent="mgMbw3N9WoBOFDehNYmM-1">
                    <mxGeometry x="760" y="-960" width="120" height="60" as="geometry"/>
                </mxCell>
                <mxCell id="_UHxchRUuSk7AmpYm-H_-7" value="Выбор наиболее подходящих поставщиков" style="rounded=0;whiteSpace=wrap;html=1;" vertex="1" parent="mgMbw3N9WoBOFDehNYmM-1">
                    <mxGeometry x="920" y="-880" width="120" height="70" as="geometry"/>
                </mxCell>
                <mxCell id="_UHxchRUuSk7AmpYm-H_-9" value="Список &lt;br&gt;поставщиков" style="endArrow=classic;html=1;exitX=1;exitY=0.5;exitDx=0;exitDy=0;entryX=0;entryY=0.5;entryDx=0;entryDy=0;" edge="1" parent="mgMbw3N9WoBOFDehNYmM-1" source="_UHxchRUuSk7AmpYm-H_-0" target="_UHxchRUuSk7AmpYm-H_-4">
                    <mxGeometry width="50" height="50" relative="1" as="geometry">
                        <mxPoint x="460" y="-1020" as="sourcePoint"/>
                        <mxPoint x="510" y="-1070" as="targetPoint"/>
                        <Array as="points">
                            <mxPoint x="420" y="-1170"/>
                            <mxPoint x="420" y="-1090"/>
                        </Array>
                    </mxGeometry>
                </mxCell>
                <mxCell id="_UHxchRUuSk7AmpYm-H_-10" value="Запросы &lt;br&gt;направлены" style="endArrow=classic;html=1;exitX=1;exitY=0.5;exitDx=0;exitDy=0;entryX=0;entryY=0.5;entryDx=0;entryDy=0;" edge="1" parent="mgMbw3N9WoBOFDehNYmM-1" source="_UHxchRUuSk7AmpYm-H_-4" target="_UHxchRUuSk7AmpYm-H_-5">
                    <mxGeometry width="50" height="50" relative="1" as="geometry">
                        <mxPoint x="460" y="-1020" as="sourcePoint"/>
                        <mxPoint x="510" y="-1070" as="targetPoint"/>
                        <Array as="points">
                            <mxPoint x="580" y="-1090"/>
                            <mxPoint x="580" y="-1010"/>
                        </Array>
                    </mxGeometry>
                </mxCell>
                <mxCell id="_UHxchRUuSk7AmpYm-H_-11" value="" style="endArrow=classic;html=1;exitX=1;exitY=0.5;exitDx=0;exitDy=0;entryX=0;entryY=0.5;entryDx=0;entryDy=0;" edge="1" parent="mgMbw3N9WoBOFDehNYmM-1">
                    <mxGeometry width="50" height="50" relative="1" as="geometry">
                        <mxPoint x="720" y="-1005" as="sourcePoint"/>
                        <mxPoint x="760" y="-925" as="targetPoint"/>
                        <Array as="points">
                            <mxPoint x="740" y="-1005"/>
                            <mxPoint x="740" y="-925"/>
                        </Array>
                    </mxGeometry>
                </mxCell>
                <mxCell id="7JpZO7YiRt7SoV5Pkd3J-19" value="Предложения &lt;br&gt;получены" style="edgeLabel;html=1;align=center;verticalAlign=middle;resizable=0;points=[];" vertex="1" connectable="0" parent="_UHxchRUuSk7AmpYm-H_-11">
                    <mxGeometry x="-0.2333" relative="1" as="geometry">
                        <mxPoint x="20" y="-1" as="offset"/>
                    </mxGeometry>
                </mxCell>
                <mxCell id="_UHxchRUuSk7AmpYm-H_-12" value="" style="endArrow=classic;html=1;exitX=1;exitY=0.5;exitDx=0;exitDy=0;entryX=0;entryY=0.5;entryDx=0;entryDy=0;" edge="1" parent="mgMbw3N9WoBOFDehNYmM-1" source="_UHxchRUuSk7AmpYm-H_-6" target="_UHxchRUuSk7AmpYm-H_-7">
                    <mxGeometry width="50" height="50" relative="1" as="geometry">
                        <mxPoint x="460" y="-1020" as="sourcePoint"/>
                        <mxPoint x="510" y="-1070" as="targetPoint"/>
                        <Array as="points">
                            <mxPoint x="900" y="-930"/>
                            <mxPoint x="900" y="-845"/>
                        </Array>
                    </mxGeometry>
                </mxCell>
                <mxCell id="7JpZO7YiRt7SoV5Pkd3J-20" value="Предложение &lt;br&gt;согласовано" style="edgeLabel;html=1;align=center;verticalAlign=middle;resizable=0;points=[];" vertex="1" connectable="0" parent="_UHxchRUuSk7AmpYm-H_-12">
                    <mxGeometry x="-0.312" y="1" relative="1" as="geometry">
                        <mxPoint as="offset"/>
                    </mxGeometry>
                </mxCell>
                <mxCell id="_UHxchRUuSk7AmpYm-H_-13" value="Предложение &lt;br&gt;не согласовано" style="endArrow=classic;html=1;exitX=1;exitY=0.25;exitDx=0;exitDy=0;" edge="1" parent="mgMbw3N9WoBOFDehNYmM-1" source="_UHxchRUuSk7AmpYm-H_-6">
                    <mxGeometry x="0.4667" width="50" height="50" relative="1" as="geometry">
                        <mxPoint x="710" y="-930" as="sourcePoint"/>
                        <mxPoint x="1180" y="-945" as="targetPoint"/>
                        <mxPoint as="offset"/>
                    </mxGeometry>
                </mxCell>
                <mxCell id="_UHxchRUuSk7AmpYm-H_-14" value="" style="endArrow=classic;html=1;exitX=1;exitY=0.25;exitDx=0;exitDy=0;" edge="1" parent="mgMbw3N9WoBOFDehNYmM-1" source="_UHxchRUuSk7AmpYm-H_-7">
                    <mxGeometry width="50" height="50" relative="1" as="geometry">
                        <mxPoint x="710" y="-930" as="sourcePoint"/>
                        <mxPoint x="1160" y="-862" as="targetPoint"/>
                    </mxGeometry>
                </mxCell>
                <mxCell id="_UHxchRUuSk7AmpYm-H_-15" value="Панель поставщиков" style="edgeLabel;html=1;align=center;verticalAlign=middle;resizable=0;points=[];" vertex="1" connectable="0" parent="_UHxchRUuSk7AmpYm-H_-14">
                    <mxGeometry x="-0.4334" y="1" relative="1" as="geometry">
                        <mxPoint x="26" as="offset"/>
                    </mxGeometry>
                </mxCell>
                <mxCell id="_UHxchRUuSk7AmpYm-H_-16" value="Заключение договора" style="endArrow=classic;html=1;exitX=1;exitY=0.75;exitDx=0;exitDy=0;" edge="1" parent="mgMbw3N9WoBOFDehNYmM-1" source="_UHxchRUuSk7AmpYm-H_-7">
                    <mxGeometry width="50" height="50" relative="1" as="geometry">
                        <mxPoint x="710" y="-930" as="sourcePoint"/>
                        <mxPoint x="1160" y="-827" as="targetPoint"/>
                    </mxGeometry>
                </mxCell>
                <mxCell id="_UHxchRUuSk7AmpYm-H_-17" value="Конъюктура &lt;br&gt;рынка" style="endArrow=block;html=1;endFill=0;" edge="1" parent="mgMbw3N9WoBOFDehNYmM-1">
                    <mxGeometry width="50" height="50" relative="1" as="geometry">
                        <mxPoint x="382" y="-1260" as="sourcePoint"/>
                        <mxPoint x="381.66666666666674" y="-1200" as="targetPoint"/>
                    </mxGeometry>
                </mxCell>
                <mxCell id="c1Z6ftPCDwI8rWDRkRz8-0" value="" style="endArrow=classic;html=1;entryX=0.5;entryY=0;entryDx=0;entryDy=0;" edge="1" parent="mgMbw3N9WoBOFDehNYmM-1">
                    <mxGeometry width="50" height="50" relative="1" as="geometry">
                        <mxPoint x="290" y="-1270" as="sourcePoint"/>
                        <mxPoint x="290" y="-1200" as="targetPoint"/>
                    </mxGeometry>
                </mxCell>
                <mxCell id="c1Z6ftPCDwI8rWDRkRz8-1" value="Регламенты и&lt;br&gt;&amp;nbsp;инструкции ТК Альфа" style="edgeLabel;html=1;align=center;verticalAlign=middle;resizable=0;points=[];" vertex="1" connectable="0" parent="c1Z6ftPCDwI8rWDRkRz8-0">
                    <mxGeometry x="0.5556" y="3" relative="1" as="geometry">
                        <mxPoint x="-3" y="-38" as="offset"/>
                    </mxGeometry>
                </mxCell>
                <mxCell id="c1Z6ftPCDwI8rWDRkRz8-3" value="" style="endArrow=classic;html=1;entryX=0.5;entryY=0;entryDx=0;entryDy=0;" edge="1" parent="mgMbw3N9WoBOFDehNYmM-1">
                    <mxGeometry width="50" height="50" relative="1" as="geometry">
                        <mxPoint x="490" y="-1260" as="sourcePoint"/>
                        <mxPoint x="490" y="-1120" as="targetPoint"/>
                    </mxGeometry>
                </mxCell>
                <mxCell id="c1Z6ftPCDwI8rWDRkRz8-4" value="Регламенты и&lt;br&gt;&amp;nbsp;инструкции ТК Альфа" style="edgeLabel;html=1;align=center;verticalAlign=middle;resizable=0;points=[];" vertex="1" connectable="0" parent="c1Z6ftPCDwI8rWDRkRz8-3">
                    <mxGeometry x="0.5556" y="3" relative="1" as="geometry">
                        <mxPoint x="-3" y="-87" as="offset"/>
                    </mxGeometry>
                </mxCell>
                <mxCell id="c1Z6ftPCDwI8rWDRkRz8-5" value="" style="endArrow=classic;html=1;entryX=0.5;entryY=0;entryDx=0;entryDy=0;" edge="1" parent="mgMbw3N9WoBOFDehNYmM-1">
                    <mxGeometry width="50" height="50" relative="1" as="geometry">
                        <mxPoint x="640" y="-1260" as="sourcePoint"/>
                        <mxPoint x="640" y="-1040" as="targetPoint"/>
                    </mxGeometry>
                </mxCell>
                <mxCell id="c1Z6ftPCDwI8rWDRkRz8-6" value="Регламенты и&lt;br&gt;&amp;nbsp;инструкции ТК Альфа" style="edgeLabel;html=1;align=center;verticalAlign=middle;resizable=0;points=[];" vertex="1" connectable="0" parent="c1Z6ftPCDwI8rWDRkRz8-5">
                    <mxGeometry x="0.5556" y="3" relative="1" as="geometry">
                        <mxPoint x="-3" y="-151" as="offset"/>
                    </mxGeometry>
                </mxCell>
                <mxCell id="c1Z6ftPCDwI8rWDRkRz8-7" value="" style="endArrow=classic;html=1;entryX=0.5;entryY=0;entryDx=0;entryDy=0;" edge="1" parent="mgMbw3N9WoBOFDehNYmM-1">
                    <mxGeometry width="50" height="50" relative="1" as="geometry">
                        <mxPoint x="800" y="-1260" as="sourcePoint"/>
                        <mxPoint x="800" y="-960" as="targetPoint"/>
                    </mxGeometry>
                </mxCell>
                <mxCell id="c1Z6ftPCDwI8rWDRkRz8-8" value="Регламенты и&lt;br&gt;&amp;nbsp;инструкции ТК Альфа" style="edgeLabel;html=1;align=center;verticalAlign=middle;resizable=0;points=[];" vertex="1" connectable="0" parent="c1Z6ftPCDwI8rWDRkRz8-7">
                    <mxGeometry x="0.5556" y="3" relative="1" as="geometry">
                        <mxPoint x="-3" y="-213" as="offset"/>
                    </mxGeometry>
                </mxCell>
                <mxCell id="c1Z6ftPCDwI8rWDRkRz8-9" value="" style="endArrow=classic;html=1;entryX=0.5;entryY=0;entryDx=0;entryDy=0;" edge="1" parent="mgMbw3N9WoBOFDehNYmM-1">
                    <mxGeometry width="50" height="50" relative="1" as="geometry">
                        <mxPoint x="970" y="-1260" as="sourcePoint"/>
                        <mxPoint x="970" y="-880" as="targetPoint"/>
                    </mxGeometry>
                </mxCell>
                <mxCell id="c1Z6ftPCDwI8rWDRkRz8-10" value="Регламенты и&lt;br&gt;&amp;nbsp;инструкции ТК Альфа" style="edgeLabel;html=1;align=center;verticalAlign=middle;resizable=0;points=[];" vertex="1" connectable="0" parent="c1Z6ftPCDwI8rWDRkRz8-9">
                    <mxGeometry x="0.5556" y="3" relative="1" as="geometry">
                        <mxPoint x="-3" y="-276" as="offset"/>
                    </mxGeometry>
                </mxCell>
                <mxCell id="c1Z6ftPCDwI8rWDRkRz8-15" value="" style="endArrow=classic;html=1;entryX=0.75;entryY=0;entryDx=0;entryDy=0;" edge="1" parent="mgMbw3N9WoBOFDehNYmM-1" target="_UHxchRUuSk7AmpYm-H_-6">
                    <mxGeometry width="50" height="50" relative="1" as="geometry">
                        <mxPoint x="850" y="-1260" as="sourcePoint"/>
                        <mxPoint x="630" y="-1180" as="targetPoint"/>
                    </mxGeometry>
                </mxCell>
                <mxCell id="c1Z6ftPCDwI8rWDRkRz8-16" value="Конъюктура &lt;br&gt;рынка" style="edgeLabel;html=1;align=center;verticalAlign=middle;resizable=0;points=[];" vertex="1" connectable="0" parent="c1Z6ftPCDwI8rWDRkRz8-15">
                    <mxGeometry x="-0.5533" y="-1" relative="1" as="geometry">
                        <mxPoint y="-17" as="offset"/>
                    </mxGeometry>
                </mxCell>
                <mxCell id="c1Z6ftPCDwI8rWDRkRz8-17" value="" style="endArrow=classic;html=1;entryX=0.75;entryY=0;entryDx=0;entryDy=0;" edge="1" parent="mgMbw3N9WoBOFDehNYmM-1" target="_UHxchRUuSk7AmpYm-H_-7">
                    <mxGeometry width="50" height="50" relative="1" as="geometry">
                        <mxPoint x="850" y="-1220" as="sourcePoint"/>
                        <mxPoint x="630" y="-1190" as="targetPoint"/>
                        <Array as="points">
                            <mxPoint x="1010" y="-1220"/>
                        </Array>
                    </mxGeometry>
                </mxCell>
                <mxCell id="7JpZO7YiRt7SoV5Pkd3J-0" value="" style="endArrow=classic;html=1;entryX=0.25;entryY=1;entryDx=0;entryDy=0;" edge="1" parent="mgMbw3N9WoBOFDehNYmM-1" target="_UHxchRUuSk7AmpYm-H_-0">
                    <mxGeometry width="50" height="50" relative="1" as="geometry">
                        <mxPoint x="310" y="-690" as="sourcePoint"/>
                        <mxPoint x="630" y="-1090" as="targetPoint"/>
                    </mxGeometry>
                </mxCell>
                <mxCell id="7JpZO7YiRt7SoV5Pkd3J-1" value="ДпМ" style="edgeLabel;html=1;align=center;verticalAlign=middle;resizable=0;points=[];" vertex="1" connectable="0" parent="7JpZO7YiRt7SoV5Pkd3J-0">
                    <mxGeometry x="-0.5512" y="1" relative="1" as="geometry">
                        <mxPoint y="82" as="offset"/>
                    </mxGeometry>
                </mxCell>
                <mxCell id="7JpZO7YiRt7SoV5Pkd3J-2" value="" style="endArrow=classic;html=1;entryX=0.25;entryY=1;entryDx=0;entryDy=0;" edge="1" parent="mgMbw3N9WoBOFDehNYmM-1" target="_UHxchRUuSk7AmpYm-H_-4">
                    <mxGeometry width="50" height="50" relative="1" as="geometry">
                        <mxPoint x="310" y="-750" as="sourcePoint"/>
                        <mxPoint x="630" y="-1090" as="targetPoint"/>
                        <Array as="points">
                            <mxPoint x="470" y="-750"/>
                        </Array>
                    </mxGeometry>
                </mxCell>
                <mxCell id="7JpZO7YiRt7SoV5Pkd3J-3" value="" style="endArrow=classic;html=1;entryX=0.25;entryY=1;entryDx=0;entryDy=0;" edge="1" parent="mgMbw3N9WoBOFDehNYmM-1" target="_UHxchRUuSk7AmpYm-H_-5">
                    <mxGeometry width="50" height="50" relative="1" as="geometry">
                        <mxPoint x="310" y="-750" as="sourcePoint"/>
                        <mxPoint x="630" y="-890" as="targetPoint"/>
                        <Array as="points">
                            <mxPoint x="630" y="-750"/>
                        </Array>
                    </mxGeometry>
                </mxCell>
                <mxCell id="7JpZO7YiRt7SoV5Pkd3J-4" value="" style="endArrow=classic;html=1;entryX=0.25;entryY=1;entryDx=0;entryDy=0;" edge="1" parent="mgMbw3N9WoBOFDehNYmM-1" target="_UHxchRUuSk7AmpYm-H_-6">
                    <mxGeometry width="50" height="50" relative="1" as="geometry">
                        <mxPoint x="590" y="-750" as="sourcePoint"/>
                        <mxPoint x="630" y="-890" as="targetPoint"/>
                        <Array as="points">
                            <mxPoint x="790" y="-750"/>
                        </Array>
                    </mxGeometry>
                </mxCell>
                <mxCell id="7JpZO7YiRt7SoV5Pkd3J-5" value="" style="endArrow=classic;html=1;entryX=0.25;entryY=1;entryDx=0;entryDy=0;" edge="1" parent="mgMbw3N9WoBOFDehNYmM-1" target="_UHxchRUuSk7AmpYm-H_-7">
                    <mxGeometry width="50" height="50" relative="1" as="geometry">
                        <mxPoint x="620" y="-750" as="sourcePoint"/>
                        <mxPoint x="630" y="-890" as="targetPoint"/>
                        <Array as="points">
                            <mxPoint x="950" y="-750"/>
                        </Array>
                    </mxGeometry>
                </mxCell>
                <mxCell id="7JpZO7YiRt7SoV5Pkd3J-6" value="" style="endArrow=classic;html=1;entryX=0.75;entryY=1;entryDx=0;entryDy=0;" edge="1" parent="mgMbw3N9WoBOFDehNYmM-1" target="_UHxchRUuSk7AmpYm-H_-0">
                    <mxGeometry width="50" height="50" relative="1" as="geometry">
                        <mxPoint x="369" y="-690" as="sourcePoint"/>
                        <mxPoint x="630" y="-890" as="targetPoint"/>
                    </mxGeometry>
                </mxCell>
                <mxCell id="7JpZO7YiRt7SoV5Pkd3J-7" value="ПК, ПО, &lt;br&gt;средства связи" style="edgeLabel;html=1;align=center;verticalAlign=middle;resizable=0;points=[];" vertex="1" connectable="0" parent="7JpZO7YiRt7SoV5Pkd3J-6">
                    <mxGeometry x="-0.8756" relative="1" as="geometry">
                        <mxPoint as="offset"/>
                    </mxGeometry>
                </mxCell>
                <mxCell id="7JpZO7YiRt7SoV5Pkd3J-9" value="" style="endArrow=classic;html=1;entryX=0.75;entryY=1;entryDx=0;entryDy=0;" edge="1" parent="mgMbw3N9WoBOFDehNYmM-1">
                    <mxGeometry width="50" height="50" relative="1" as="geometry">
                        <mxPoint x="520" y="-680" as="sourcePoint"/>
                        <mxPoint x="520" y="-1060" as="targetPoint"/>
                    </mxGeometry>
                </mxCell>
                <mxCell id="7JpZO7YiRt7SoV5Pkd3J-10" value="ПК, ПО, &lt;br&gt;средства связи" style="edgeLabel;html=1;align=center;verticalAlign=middle;resizable=0;points=[];" vertex="1" connectable="0" parent="7JpZO7YiRt7SoV5Pkd3J-9">
                    <mxGeometry x="-0.8756" relative="1" as="geometry">
                        <mxPoint as="offset"/>
                    </mxGeometry>
                </mxCell>
                <mxCell id="7JpZO7YiRt7SoV5Pkd3J-11" value="" style="endArrow=classic;html=1;entryX=0.5;entryY=1;entryDx=0;entryDy=0;" edge="1" parent="mgMbw3N9WoBOFDehNYmM-1" target="_UHxchRUuSk7AmpYm-H_-5">
                    <mxGeometry width="50" height="50" relative="1" as="geometry">
                        <mxPoint x="660" y="-680" as="sourcePoint"/>
                        <mxPoint x="670" y="-1120" as="targetPoint"/>
                    </mxGeometry>
                </mxCell>
                <mxCell id="7JpZO7YiRt7SoV5Pkd3J-12" value="ПК, ПО, &lt;br&gt;средства связи" style="edgeLabel;html=1;align=center;verticalAlign=middle;resizable=0;points=[];" vertex="1" connectable="0" parent="7JpZO7YiRt7SoV5Pkd3J-11">
                    <mxGeometry x="-0.8756" relative="1" as="geometry">
                        <mxPoint y="-11" as="offset"/>
                    </mxGeometry>
                </mxCell>
                <mxCell id="7JpZO7YiRt7SoV5Pkd3J-13" value="" style="endArrow=classic;html=1;" edge="1" parent="mgMbw3N9WoBOFDehNYmM-1">
                    <mxGeometry width="50" height="50" relative="1" as="geometry">
                        <mxPoint x="813" y="-680" as="sourcePoint"/>
                        <mxPoint x="813" y="-900" as="targetPoint"/>
                    </mxGeometry>
                </mxCell>
                <mxCell id="7JpZO7YiRt7SoV5Pkd3J-14" value="ПК, ПО, &lt;br&gt;средства &lt;br&gt;связи" style="edgeLabel;html=1;align=center;verticalAlign=middle;resizable=0;points=[];" vertex="1" connectable="0" parent="7JpZO7YiRt7SoV5Pkd3J-13">
                    <mxGeometry x="-0.8756" relative="1" as="geometry">
                        <mxPoint y="-16" as="offset"/>
                    </mxGeometry>
                </mxCell>
                <mxCell id="7JpZO7YiRt7SoV5Pkd3J-15" value="" style="endArrow=classic;html=1;entryX=0.75;entryY=1;entryDx=0;entryDy=0;" edge="1" parent="mgMbw3N9WoBOFDehNYmM-1">
                    <mxGeometry width="50" height="50" relative="1" as="geometry">
                        <mxPoint x="990" y="-690" as="sourcePoint"/>
                        <mxPoint x="990" y="-810" as="targetPoint"/>
                    </mxGeometry>
                </mxCell>
                <mxCell id="7JpZO7YiRt7SoV5Pkd3J-16" value="ПК, ПО, &lt;br&gt;средства связи" style="edgeLabel;html=1;align=center;verticalAlign=middle;resizable=0;points=[];" vertex="1" connectable="0" parent="7JpZO7YiRt7SoV5Pkd3J-15">
                    <mxGeometry x="-0.8756" relative="1" as="geometry">
                        <mxPoint y="-13" as="offset"/>
                    </mxGeometry>
                </mxCell>
                <mxCell id="7JpZO7YiRt7SoV5Pkd3J-17" value="ЛИ" style="endArrow=classic;html=1;entryX=0.75;entryY=1;entryDx=0;entryDy=0;" edge="1" parent="mgMbw3N9WoBOFDehNYmM-1" target="_UHxchRUuSk7AmpYm-H_-6">
                    <mxGeometry x="-0.6364" width="50" height="50" relative="1" as="geometry">
                        <mxPoint x="850" y="-680" as="sourcePoint"/>
                        <mxPoint x="873" y="-900" as="targetPoint"/>
                        <Array as="points"/>
                        <mxPoint as="offset"/>
                    </mxGeometry>
                </mxCell>
                <mxCell id="7JpZO7YiRt7SoV5Pkd3J-18" value="" style="endArrow=classic;html=1;entryX=0.5;entryY=1;entryDx=0;entryDy=0;" edge="1" parent="mgMbw3N9WoBOFDehNYmM-1" target="_UHxchRUuSk7AmpYm-H_-7">
                    <mxGeometry width="50" height="50" relative="1" as="geometry">
                        <mxPoint x="850" y="-730" as="sourcePoint"/>
                        <mxPoint x="630" y="-800" as="targetPoint"/>
                        <Array as="points">
                            <mxPoint x="980" y="-730"/>
                        </Array>
                    </mxGeometry>
                </mxCell>
            </root>
        </mxGraphModel>
    </diagram>
    <diagram id="-h9MUWVfFAYGzPpzmQKY" name="3.1. Заключение договоров">
        <mxGraphModel dx="1204" dy="2444" grid="1" gridSize="10" guides="1" tooltips="1" connect="1" arrows="1" fold="1" page="1" pageScale="1" pageWidth="1169" pageHeight="827" math="0" shadow="0">
            <root>
                <mxCell id="cUDKzjQ5Hh0ajV2kyjN3-0"/>
                <mxCell id="cUDKzjQ5Hh0ajV2kyjN3-1" parent="cUDKzjQ5Hh0ajV2kyjN3-0"/>
                <mxCell id="S9B4nziVOIjk7fqDBrau-0" value="Легенда" style="swimlane;swimlaneLine=0;" vertex="1" parent="cUDKzjQ5Hh0ajV2kyjN3-1">
                    <mxGeometry x="50" y="-1560" width="570" height="280" as="geometry"/>
                </mxCell>
                <mxCell id="S9B4nziVOIjk7fqDBrau-1" value="Наименование блока работ&amp;nbsp; (действия)" style="whiteSpace=wrap;html=1;" vertex="1" parent="S9B4nziVOIjk7fqDBrau-0">
                    <mxGeometry x="15" y="40" width="205" height="70" as="geometry"/>
                </mxCell>
                <mxCell id="S9B4nziVOIjk7fqDBrau-2" value="Порядок действия" style="text;html=1;strokeColor=none;fillColor=none;align=center;verticalAlign=middle;whiteSpace=wrap;" vertex="1" parent="S9B4nziVOIjk7fqDBrau-0">
                    <mxGeometry x="105" y="85" width="115" height="30" as="geometry"/>
                </mxCell>
                <mxCell id="S9B4nziVOIjk7fqDBrau-3" value="Данные указаны только на родительской&amp;nbsp; и дочерней схеме" style="text;html=1;strokeColor=none;fillColor=none;align=center;verticalAlign=middle;whiteSpace=wrap;" vertex="1" parent="S9B4nziVOIjk7fqDBrau-0">
                    <mxGeometry x="365" y="50" width="155" height="30" as="geometry"/>
                </mxCell>
                <mxCell id="S9B4nziVOIjk7fqDBrau-4" value="" style="endArrow=classic;html=1;startArrow=oval;startFill=0;" edge="1" parent="S9B4nziVOIjk7fqDBrau-0">
                    <mxGeometry width="50" height="50" relative="1" as="geometry">
                        <mxPoint x="270" y="99.41" as="sourcePoint"/>
                        <mxPoint x="340" y="99.41" as="targetPoint"/>
                    </mxGeometry>
                </mxCell>
                <mxCell id="S9B4nziVOIjk7fqDBrau-5" value="Данные указаны только на родительской схеме" style="text;html=1;strokeColor=none;fillColor=none;align=center;verticalAlign=middle;whiteSpace=wrap;" vertex="1" parent="S9B4nziVOIjk7fqDBrau-0">
                    <mxGeometry x="365" y="85" width="155" height="30" as="geometry"/>
                </mxCell>
                <mxCell id="S9B4nziVOIjk7fqDBrau-6" value="" style="endArrow=block;html=1;endFill=0;" edge="1" parent="S9B4nziVOIjk7fqDBrau-0">
                    <mxGeometry width="50" height="50" relative="1" as="geometry">
                        <mxPoint x="270" y="140" as="sourcePoint"/>
                        <mxPoint x="340" y="140" as="targetPoint"/>
                    </mxGeometry>
                </mxCell>
                <mxCell id="S9B4nziVOIjk7fqDBrau-7" value="Данные указаны только на дочерней схеме" style="text;html=1;strokeColor=none;fillColor=none;align=center;verticalAlign=middle;whiteSpace=wrap;" vertex="1" parent="S9B4nziVOIjk7fqDBrau-0">
                    <mxGeometry x="365" y="130" width="155" height="30" as="geometry"/>
                </mxCell>
                <mxCell id="S9B4nziVOIjk7fqDBrau-8" value="" style="endArrow=classic;html=1;" edge="1" parent="S9B4nziVOIjk7fqDBrau-0">
                    <mxGeometry width="50" height="50" relative="1" as="geometry">
                        <mxPoint x="270" y="64.41" as="sourcePoint"/>
                        <mxPoint x="340" y="64.41" as="targetPoint"/>
                    </mxGeometry>
                </mxCell>
                <mxCell id="S9B4nziVOIjk7fqDBrau-9" value="Справочная информация" style="swimlane;swimlaneLine=0;" vertex="1" parent="cUDKzjQ5Hh0ajV2kyjN3-1">
                    <mxGeometry x="640" y="-1560" width="510" height="280" as="geometry">
                        <mxRectangle x="640" y="-1560" width="180" height="23" as="alternateBounds"/>
                    </mxGeometry>
                </mxCell>
                <mxCell id="S9B4nziVOIjk7fqDBrau-10" value="&lt;h1 style=&quot;font-size: 14px&quot;&gt;&lt;font style=&quot;font-size: 14px&quot;&gt;Границы процесса&lt;/font&gt;&lt;/h1&gt;&lt;div style=&quot;font-size: 14px&quot;&gt;&lt;font style=&quot;font-size: 14px&quot;&gt;&lt;b style=&quot;font-size: 14px&quot;&gt;От&lt;/b&gt; подготовки пакета документов&lt;/font&gt;&lt;/div&gt;&lt;div style=&quot;font-size: 14px&quot;&gt;&lt;font style=&quot;font-size: 14px&quot;&gt;&lt;b style=&quot;font-size: 14px&quot;&gt;До&lt;/b&gt; заключения договора&lt;/font&gt;&lt;/div&gt;&lt;div style=&quot;font-size: 14px&quot;&gt;&lt;font style=&quot;font-size: 14px&quot;&gt;&lt;br style=&quot;font-size: 14px&quot;&gt;&lt;/font&gt;&lt;/div&gt;&lt;div style=&quot;font-size: 14px&quot;&gt;&lt;font style=&quot;font-size: 14px&quot;&gt;&lt;b style=&quot;font-size: 14px&quot;&gt;Владельцы процесса:&lt;/b&gt;&lt;/font&gt;&lt;/div&gt;&lt;div style=&quot;font-size: 14px&quot;&gt;&lt;font style=&quot;font-size: 14px&quot;&gt;Дирекция по маркетингу&lt;/font&gt;&lt;/div&gt;&lt;div style=&quot;font-size: 14px&quot;&gt;&lt;font style=&quot;font-size: 14px&quot;&gt;&lt;br style=&quot;font-size: 14px&quot;&gt;&lt;/font&gt;&lt;/div&gt;&lt;div style=&quot;font-size: 14px&quot;&gt;&lt;font style=&quot;font-size: 14px&quot;&gt;&lt;b style=&quot;font-size: 14px&quot;&gt;Уровень процесса: 2&lt;/b&gt;&lt;/font&gt;&lt;/div&gt;&lt;div style=&quot;font-size: 14px&quot;&gt;&lt;font style=&quot;font-size: 14px&quot;&gt;&lt;br style=&quot;font-size: 14px&quot;&gt;&lt;/font&gt;&lt;/div&gt;" style="text;html=1;strokeColor=none;fillColor=none;spacing=5;spacingTop=-20;whiteSpace=wrap;overflow=hidden;rounded=0;fontSize=14;" vertex="1" parent="S9B4nziVOIjk7fqDBrau-9">
                    <mxGeometry x="10" y="30" width="190" height="160" as="geometry"/>
                </mxCell>
                <mxCell id="S9B4nziVOIjk7fqDBrau-11" value="&lt;h1 style=&quot;font-size: 14px&quot;&gt;&lt;font style=&quot;font-size: 14px&quot;&gt;Участники процесса&lt;/font&gt;&lt;/h1&gt;&lt;div style=&quot;font-size: 10px&quot;&gt;&lt;ul&gt;&lt;li&gt;&lt;b&gt;Дирекиця по маркетингу&lt;/b&gt;&lt;/li&gt;&lt;li&gt;&lt;b&gt;Коммерческая дирекция&lt;/b&gt;&lt;/li&gt;&lt;li&gt;&lt;b&gt;Управление транспортной логистики&lt;/b&gt;&lt;/li&gt;&lt;li&gt;&lt;b&gt;Управление складской логистики&lt;/b&gt;&lt;/li&gt;&lt;li&gt;&lt;b&gt;Управление развития бизнес-продуктов&lt;/b&gt;&lt;/li&gt;&lt;li&gt;&lt;b&gt;Финансовая дирекция&lt;/b&gt;&lt;br&gt;&lt;/li&gt;&lt;li&gt;&lt;b&gt;Поставщики&lt;/b&gt;&lt;/li&gt;&lt;li&gt;&lt;b&gt;&quot;Лада-имидж&quot;&lt;/b&gt;&lt;/li&gt;&lt;/ul&gt;&lt;/div&gt;" style="text;html=1;strokeColor=none;fillColor=none;spacing=5;spacingTop=-20;whiteSpace=wrap;overflow=hidden;rounded=0;fontSize=14;" vertex="1" parent="S9B4nziVOIjk7fqDBrau-9">
                    <mxGeometry x="280" y="30" width="190" height="230" as="geometry"/>
                </mxCell>
                <mxCell id="S9B4nziVOIjk7fqDBrau-12" value="&lt;h1&gt;Бизнес-процесс закупки товаров ТК Альфа: 3.1. Заключение договора&lt;/h1&gt;" style="text;html=1;strokeColor=none;fillColor=none;spacing=5;spacingTop=-20;whiteSpace=wrap;overflow=hidden;" vertex="1" parent="cUDKzjQ5Hh0ajV2kyjN3-1">
                    <mxGeometry x="40" y="-1640" width="1130" height="60" as="geometry"/>
                </mxCell>
                <mxCell id="eb2f2ALQHTt-F6JaoNiH-0" value="" style="endArrow=classic;html=1;exitX=1;exitY=0.25;exitDx=0;exitDy=0;" edge="1" parent="cUDKzjQ5Hh0ajV2kyjN3-1">
                    <mxGeometry width="50" height="50" relative="1" as="geometry">
                        <mxPoint x="40" y="-1160" as="sourcePoint"/>
                        <mxPoint x="160" y="-1159.5" as="targetPoint"/>
                    </mxGeometry>
                </mxCell>
                <mxCell id="eb2f2ALQHTt-F6JaoNiH-1" value="Панель поставщиков" style="edgeLabel;html=1;align=center;verticalAlign=middle;resizable=0;points=[];" vertex="1" connectable="0" parent="eb2f2ALQHTt-F6JaoNiH-0">
                    <mxGeometry x="-0.4334" y="1" relative="1" as="geometry">
                        <mxPoint x="26" as="offset"/>
                    </mxGeometry>
                </mxCell>
                <mxCell id="eb2f2ALQHTt-F6JaoNiH-2" value="Подготовка документов" style="rounded=0;whiteSpace=wrap;html=1;" vertex="1" parent="cUDKzjQ5Hh0ajV2kyjN3-1">
                    <mxGeometry x="160" y="-1170" width="120" height="60" as="geometry"/>
                </mxCell>
                <mxCell id="eb2f2ALQHTt-F6JaoNiH-3" value="" style="endArrow=classic;html=1;entryX=0;entryY=0.75;entryDx=0;entryDy=0;" edge="1" parent="cUDKzjQ5Hh0ajV2kyjN3-1" target="eb2f2ALQHTt-F6JaoNiH-2">
                    <mxGeometry width="50" height="50" relative="1" as="geometry">
                        <mxPoint x="40" y="-1125" as="sourcePoint"/>
                        <mxPoint x="610" y="-1280" as="targetPoint"/>
                    </mxGeometry>
                </mxCell>
                <mxCell id="eb2f2ALQHTt-F6JaoNiH-4" value="Предложение &lt;br&gt;поставщика" style="edgeLabel;html=1;align=center;verticalAlign=middle;resizable=0;points=[];" vertex="1" connectable="0" parent="eb2f2ALQHTt-F6JaoNiH-3">
                    <mxGeometry x="0.3333" y="2" relative="1" as="geometry">
                        <mxPoint x="-17" as="offset"/>
                    </mxGeometry>
                </mxCell>
                <mxCell id="G55YxAd6bl33rl5d4_Dp-0" value="" style="endArrow=classic;html=1;entryX=0.5;entryY=0;entryDx=0;entryDy=0;" edge="1" parent="cUDKzjQ5Hh0ajV2kyjN3-1">
                    <mxGeometry width="50" height="50" relative="1" as="geometry">
                        <mxPoint x="219.5" y="-1240" as="sourcePoint"/>
                        <mxPoint x="219.5" y="-1170" as="targetPoint"/>
                    </mxGeometry>
                </mxCell>
                <mxCell id="G55YxAd6bl33rl5d4_Dp-1" value="Регламенты и&lt;br&gt;&amp;nbsp;инструкции ТК Альфа" style="edgeLabel;html=1;align=center;verticalAlign=middle;resizable=0;points=[];" vertex="1" connectable="0" parent="G55YxAd6bl33rl5d4_Dp-0">
                    <mxGeometry x="0.5556" y="3" relative="1" as="geometry">
                        <mxPoint x="-3" y="-38" as="offset"/>
                    </mxGeometry>
                </mxCell>
                <mxCell id="I2UVN_qCshwRlL9nhZ20-0" value="Запуск процесса согласования договора" style="rounded=0;whiteSpace=wrap;html=1;" vertex="1" parent="cUDKzjQ5Hh0ajV2kyjN3-1">
                    <mxGeometry x="400" y="-1080" width="120" height="60" as="geometry"/>
                </mxCell>
                <mxCell id="I2UVN_qCshwRlL9nhZ20-1" value="Исправление замечаний" style="rounded=0;whiteSpace=wrap;html=1;" vertex="1" parent="cUDKzjQ5Hh0ajV2kyjN3-1">
                    <mxGeometry x="640" y="-1000" width="120" height="60" as="geometry"/>
                </mxCell>
                <mxCell id="tby_6qvDVCgu9OiFijmI-0" value="Пакет&lt;br&gt;&amp;nbsp;документов" style="endArrow=classic;html=1;exitX=1;exitY=0.5;exitDx=0;exitDy=0;entryX=0;entryY=0.5;entryDx=0;entryDy=0;" edge="1" parent="cUDKzjQ5Hh0ajV2kyjN3-1" source="eb2f2ALQHTt-F6JaoNiH-2" target="I2UVN_qCshwRlL9nhZ20-0">
                    <mxGeometry width="50" height="50" relative="1" as="geometry">
                        <mxPoint x="560" y="-1140" as="sourcePoint"/>
                        <mxPoint x="610" y="-1190" as="targetPoint"/>
                        <Array as="points">
                            <mxPoint x="320" y="-1140"/>
                            <mxPoint x="320" y="-1050"/>
                        </Array>
                    </mxGeometry>
                </mxCell>
                <mxCell id="tby_6qvDVCgu9OiFijmI-1" value="Выявленные &lt;br&gt;замечания и корректировки" style="endArrow=classic;html=1;exitX=1;exitY=0.5;exitDx=0;exitDy=0;entryX=0;entryY=0.5;entryDx=0;entryDy=0;" edge="1" parent="cUDKzjQ5Hh0ajV2kyjN3-1" source="I2UVN_qCshwRlL9nhZ20-0" target="I2UVN_qCshwRlL9nhZ20-1">
                    <mxGeometry width="50" height="50" relative="1" as="geometry">
                        <mxPoint x="560" y="-1140" as="sourcePoint"/>
                        <mxPoint x="610" y="-1190" as="targetPoint"/>
                        <Array as="points">
                            <mxPoint x="570" y="-1050"/>
                            <mxPoint x="570" y="-970"/>
                        </Array>
                    </mxGeometry>
                </mxCell>
                <mxCell id="tby_6qvDVCgu9OiFijmI-2" value="" style="endArrow=classic;html=1;entryX=0.25;entryY=1;entryDx=0;entryDy=0;" edge="1" parent="cUDKzjQ5Hh0ajV2kyjN3-1" target="eb2f2ALQHTt-F6JaoNiH-2">
                    <mxGeometry width="50" height="50" relative="1" as="geometry">
                        <mxPoint x="190" y="-840" as="sourcePoint"/>
                        <mxPoint x="610" y="-1200" as="targetPoint"/>
                    </mxGeometry>
                </mxCell>
                <mxCell id="tby_6qvDVCgu9OiFijmI-3" value="ДпМ" style="edgeLabel;html=1;align=center;verticalAlign=middle;resizable=0;points=[];" vertex="1" connectable="0" parent="tby_6qvDVCgu9OiFijmI-2">
                    <mxGeometry x="-0.4737" y="-3" relative="1" as="geometry">
                        <mxPoint y="41" as="offset"/>
                    </mxGeometry>
                </mxCell>
                <mxCell id="tby_6qvDVCgu9OiFijmI-4" value="" style="endArrow=classic;html=1;entryX=0.658;entryY=1.067;entryDx=0;entryDy=0;entryPerimeter=0;" edge="1" parent="cUDKzjQ5Hh0ajV2kyjN3-1" target="eb2f2ALQHTt-F6JaoNiH-2">
                    <mxGeometry width="50" height="50" relative="1" as="geometry">
                        <mxPoint x="239" y="-840" as="sourcePoint"/>
                        <mxPoint x="610" y="-1200" as="targetPoint"/>
                    </mxGeometry>
                </mxCell>
                <mxCell id="tby_6qvDVCgu9OiFijmI-5" value="ПК, &lt;br&gt;ПО, &lt;br&gt;средства связи" style="edgeLabel;html=1;align=center;verticalAlign=middle;resizable=0;points=[];" vertex="1" connectable="0" parent="tby_6qvDVCgu9OiFijmI-4">
                    <mxGeometry x="-0.5162" y="-1" relative="1" as="geometry">
                        <mxPoint y="5" as="offset"/>
                    </mxGeometry>
                </mxCell>
                <mxCell id="tby_6qvDVCgu9OiFijmI-6" value="" style="endArrow=classic;html=1;" edge="1" parent="cUDKzjQ5Hh0ajV2kyjN3-1" target="I2UVN_qCshwRlL9nhZ20-0">
                    <mxGeometry width="50" height="50" relative="1" as="geometry">
                        <mxPoint x="460" y="-840" as="sourcePoint"/>
                        <mxPoint x="610" y="-1210" as="targetPoint"/>
                    </mxGeometry>
                </mxCell>
                <mxCell id="tby_6qvDVCgu9OiFijmI-7" value="Согласующие" style="edgeLabel;html=1;align=center;verticalAlign=middle;resizable=0;points=[];" vertex="1" connectable="0" parent="tby_6qvDVCgu9OiFijmI-6">
                    <mxGeometry x="-0.2" y="-3" relative="1" as="geometry">
                        <mxPoint x="-3" y="36" as="offset"/>
                    </mxGeometry>
                </mxCell>
                <mxCell id="tby_6qvDVCgu9OiFijmI-8" value="" style="endArrow=classic;html=1;exitX=1;exitY=0.5;exitDx=0;exitDy=0;" edge="1" parent="cUDKzjQ5Hh0ajV2kyjN3-1" source="I2UVN_qCshwRlL9nhZ20-1">
                    <mxGeometry width="50" height="50" relative="1" as="geometry">
                        <mxPoint x="560" y="-1160" as="sourcePoint"/>
                        <mxPoint x="860" y="-970" as="targetPoint"/>
                    </mxGeometry>
                </mxCell>
                <mxCell id="tby_6qvDVCgu9OiFijmI-9" value="Договор&lt;br&gt;&amp;nbsp;заключен" style="edgeLabel;html=1;align=center;verticalAlign=middle;resizable=0;points=[];" vertex="1" connectable="0" parent="tby_6qvDVCgu9OiFijmI-8">
                    <mxGeometry x="0.3143" y="-4" relative="1" as="geometry">
                        <mxPoint as="offset"/>
                    </mxGeometry>
                </mxCell>
                <mxCell id="tby_6qvDVCgu9OiFijmI-10" value="" style="endArrow=classic;html=1;exitX=1;exitY=0.25;exitDx=0;exitDy=0;entryX=0;entryY=0.25;entryDx=0;entryDy=0;" edge="1" parent="cUDKzjQ5Hh0ajV2kyjN3-1" source="I2UVN_qCshwRlL9nhZ20-1" target="I2UVN_qCshwRlL9nhZ20-0">
                    <mxGeometry width="50" height="50" relative="1" as="geometry">
                        <mxPoint x="560" y="-1170" as="sourcePoint"/>
                        <mxPoint x="610" y="-1220" as="targetPoint"/>
                        <Array as="points">
                            <mxPoint x="800" y="-985"/>
                            <mxPoint x="800" y="-1120"/>
                            <mxPoint x="360" y="-1120"/>
                            <mxPoint x="360" y="-1065"/>
                        </Array>
                    </mxGeometry>
                </mxCell>
                <mxCell id="tby_6qvDVCgu9OiFijmI-11" value="Замечания исправлены" style="edgeLabel;html=1;align=center;verticalAlign=middle;resizable=0;points=[];" vertex="1" connectable="0" parent="tby_6qvDVCgu9OiFijmI-10">
                    <mxGeometry x="-0.3874" y="1" relative="1" as="geometry">
                        <mxPoint as="offset"/>
                    </mxGeometry>
                </mxCell>
                <mxCell id="tby_6qvDVCgu9OiFijmI-12" value="" style="endArrow=classic;html=1;entryX=0.317;entryY=1;entryDx=0;entryDy=0;entryPerimeter=0;" edge="1" parent="cUDKzjQ5Hh0ajV2kyjN3-1" target="I2UVN_qCshwRlL9nhZ20-1">
                    <mxGeometry width="50" height="50" relative="1" as="geometry">
                        <mxPoint x="460" y="-920" as="sourcePoint"/>
                        <mxPoint x="510" y="-970" as="targetPoint"/>
                        <Array as="points">
                            <mxPoint x="678" y="-920"/>
                        </Array>
                    </mxGeometry>
                </mxCell>
                <mxCell id="tby_6qvDVCgu9OiFijmI-13" value="" style="endArrow=classic;html=1;entryX=0.25;entryY=1;entryDx=0;entryDy=0;" edge="1" parent="cUDKzjQ5Hh0ajV2kyjN3-1" target="I2UVN_qCshwRlL9nhZ20-0">
                    <mxGeometry width="50" height="50" relative="1" as="geometry">
                        <mxPoint x="190" y="-950" as="sourcePoint"/>
                        <mxPoint x="610" y="-1230" as="targetPoint"/>
                        <Array as="points">
                            <mxPoint x="430" y="-950"/>
                        </Array>
                    </mxGeometry>
                </mxCell>
                <mxCell id="tby_6qvDVCgu9OiFijmI-16" value="" style="endArrow=classic;html=1;entryX=0.675;entryY=1;entryDx=0;entryDy=0;entryPerimeter=0;" edge="1" parent="cUDKzjQ5Hh0ajV2kyjN3-1">
                    <mxGeometry width="50" height="50" relative="1" as="geometry">
                        <mxPoint x="751" y="-840" as="sourcePoint"/>
                        <mxPoint x="751" y="-940" as="targetPoint"/>
                        <Array as="points">
                            <mxPoint x="751" y="-900"/>
                        </Array>
                    </mxGeometry>
                </mxCell>
                <mxCell id="tby_6qvDVCgu9OiFijmI-17" value="ДпМ" style="edgeLabel;html=1;align=center;verticalAlign=middle;resizable=0;points=[];" vertex="1" connectable="0" parent="tby_6qvDVCgu9OiFijmI-16">
                    <mxGeometry x="0.1431" y="-4" relative="1" as="geometry">
                        <mxPoint y="31" as="offset"/>
                    </mxGeometry>
                </mxCell>
                <mxCell id="tby_6qvDVCgu9OiFijmI-18" value="" style="endArrow=classic;html=1;entryX=0.658;entryY=1.067;entryDx=0;entryDy=0;entryPerimeter=0;" edge="1" parent="cUDKzjQ5Hh0ajV2kyjN3-1">
                    <mxGeometry width="50" height="50" relative="1" as="geometry">
                        <mxPoint x="700" y="-840" as="sourcePoint"/>
                        <mxPoint x="699.5" y="-940" as="targetPoint"/>
                    </mxGeometry>
                </mxCell>
                <mxCell id="tby_6qvDVCgu9OiFijmI-19" value="ПК, &lt;br&gt;ПО, &lt;br&gt;средства связи" style="edgeLabel;html=1;align=center;verticalAlign=middle;resizable=0;points=[];" vertex="1" connectable="0" parent="tby_6qvDVCgu9OiFijmI-18">
                    <mxGeometry x="-0.5162" y="-1" relative="1" as="geometry">
                        <mxPoint x="-1" y="-6" as="offset"/>
                    </mxGeometry>
                </mxCell>
                <mxCell id="tby_6qvDVCgu9OiFijmI-20" value="" style="endArrow=classic;html=1;entryX=0.425;entryY=0.033;entryDx=0;entryDy=0;entryPerimeter=0;" edge="1" parent="cUDKzjQ5Hh0ajV2kyjN3-1" target="I2UVN_qCshwRlL9nhZ20-0">
                    <mxGeometry width="50" height="50" relative="1" as="geometry">
                        <mxPoint x="450" y="-1240" as="sourcePoint"/>
                        <mxPoint x="450" y="-1170" as="targetPoint"/>
                    </mxGeometry>
                </mxCell>
                <mxCell id="tby_6qvDVCgu9OiFijmI-21" value="Регламенты и&lt;br&gt;&amp;nbsp;инструкции ТК Альфа" style="edgeLabel;html=1;align=center;verticalAlign=middle;resizable=0;points=[];" vertex="1" connectable="0" parent="tby_6qvDVCgu9OiFijmI-20">
                    <mxGeometry x="0.5556" y="3" relative="1" as="geometry">
                        <mxPoint x="-3" y="-106" as="offset"/>
                    </mxGeometry>
                </mxCell>
                <mxCell id="tby_6qvDVCgu9OiFijmI-22" value="" style="endArrow=classic;html=1;entryX=0.342;entryY=-0.05;entryDx=0;entryDy=0;entryPerimeter=0;" edge="1" parent="cUDKzjQ5Hh0ajV2kyjN3-1" target="I2UVN_qCshwRlL9nhZ20-1">
                    <mxGeometry width="50" height="50" relative="1" as="geometry">
                        <mxPoint x="680" y="-1241.98" as="sourcePoint"/>
                        <mxPoint x="681" y="-1080" as="targetPoint"/>
                    </mxGeometry>
                </mxCell>
                <mxCell id="tby_6qvDVCgu9OiFijmI-23" value="Регламенты и&lt;br&gt;&amp;nbsp;инструкции ТК Альфа" style="edgeLabel;html=1;align=center;verticalAlign=middle;resizable=0;points=[];" vertex="1" connectable="0" parent="tby_6qvDVCgu9OiFijmI-22">
                    <mxGeometry x="0.5556" y="3" relative="1" as="geometry">
                        <mxPoint x="-3" y="-106" as="offset"/>
                    </mxGeometry>
                </mxCell>
                <mxCell id="tby_6qvDVCgu9OiFijmI-24" value="Поставщик" style="endArrow=classic;html=1;entryX=0.117;entryY=0.983;entryDx=0;entryDy=0;entryPerimeter=0;" edge="1" parent="cUDKzjQ5Hh0ajV2kyjN3-1" target="I2UVN_qCshwRlL9nhZ20-0">
                    <mxGeometry x="-0.779" width="50" height="50" relative="1" as="geometry">
                        <mxPoint x="414" y="-840" as="sourcePoint"/>
                        <mxPoint x="610" y="-1030" as="targetPoint"/>
                        <mxPoint as="offset"/>
                    </mxGeometry>
                </mxCell>
                <mxCell id="tby_6qvDVCgu9OiFijmI-25" value="Поставщик" style="endArrow=classic;html=1;entryX=0.117;entryY=0.983;entryDx=0;entryDy=0;entryPerimeter=0;" edge="1" parent="cUDKzjQ5Hh0ajV2kyjN3-1">
                    <mxGeometry width="50" height="50" relative="1" as="geometry">
                        <mxPoint x="660" y="-840" as="sourcePoint"/>
                        <mxPoint x="660.04" y="-940" as="targetPoint"/>
                        <mxPoint as="offset"/>
                    </mxGeometry>
                </mxCell>
            </root>
        </mxGraphModel>
    </diagram>
    <diagram id="nz9k74pr4w_gZ7r9O0tO" name="4.1. Организация и контроль поставок4.1. Организация и контроль поставок">
        <mxGraphModel dx="1204" dy="2444" grid="1" gridSize="10" guides="1" tooltips="1" connect="1" arrows="1" fold="1" page="1" pageScale="1" pageWidth="1169" pageHeight="827" math="0" shadow="0">
            <root>
                <mxCell id="AKtoRm2hV_1FblbGZRJF-0"/>
                <mxCell id="AKtoRm2hV_1FblbGZRJF-1" parent="AKtoRm2hV_1FblbGZRJF-0"/>
                <mxCell id="JuJ1iAeebFtIP4Auxc0E-0" value="Легенда" style="swimlane;swimlaneLine=0;" vertex="1" parent="AKtoRm2hV_1FblbGZRJF-1">
                    <mxGeometry x="50" y="-1560" width="570" height="280" as="geometry"/>
                </mxCell>
                <mxCell id="JuJ1iAeebFtIP4Auxc0E-1" value="Наименование блока работ&amp;nbsp; (действия)" style="whiteSpace=wrap;html=1;" vertex="1" parent="JuJ1iAeebFtIP4Auxc0E-0">
                    <mxGeometry x="15" y="40" width="205" height="70" as="geometry"/>
                </mxCell>
                <mxCell id="JuJ1iAeebFtIP4Auxc0E-2" value="Порядок действия" style="text;html=1;strokeColor=none;fillColor=none;align=center;verticalAlign=middle;whiteSpace=wrap;" vertex="1" parent="JuJ1iAeebFtIP4Auxc0E-0">
                    <mxGeometry x="105" y="85" width="115" height="30" as="geometry"/>
                </mxCell>
                <mxCell id="JuJ1iAeebFtIP4Auxc0E-3" value="Данные указаны только на родительской&amp;nbsp; и дочерней схеме" style="text;html=1;strokeColor=none;fillColor=none;align=center;verticalAlign=middle;whiteSpace=wrap;" vertex="1" parent="JuJ1iAeebFtIP4Auxc0E-0">
                    <mxGeometry x="365" y="50" width="155" height="30" as="geometry"/>
                </mxCell>
                <mxCell id="JuJ1iAeebFtIP4Auxc0E-4" value="" style="endArrow=classic;html=1;startArrow=oval;startFill=0;" edge="1" parent="JuJ1iAeebFtIP4Auxc0E-0">
                    <mxGeometry width="50" height="50" relative="1" as="geometry">
                        <mxPoint x="270" y="99.41" as="sourcePoint"/>
                        <mxPoint x="340" y="99.41" as="targetPoint"/>
                    </mxGeometry>
                </mxCell>
                <mxCell id="JuJ1iAeebFtIP4Auxc0E-5" value="Данные указаны только на родительской схеме" style="text;html=1;strokeColor=none;fillColor=none;align=center;verticalAlign=middle;whiteSpace=wrap;" vertex="1" parent="JuJ1iAeebFtIP4Auxc0E-0">
                    <mxGeometry x="365" y="85" width="155" height="30" as="geometry"/>
                </mxCell>
                <mxCell id="JuJ1iAeebFtIP4Auxc0E-6" value="" style="endArrow=block;html=1;endFill=0;" edge="1" parent="JuJ1iAeebFtIP4Auxc0E-0">
                    <mxGeometry width="50" height="50" relative="1" as="geometry">
                        <mxPoint x="270" y="140" as="sourcePoint"/>
                        <mxPoint x="340" y="140" as="targetPoint"/>
                    </mxGeometry>
                </mxCell>
                <mxCell id="JuJ1iAeebFtIP4Auxc0E-7" value="Данные указаны только на дочерней схеме" style="text;html=1;strokeColor=none;fillColor=none;align=center;verticalAlign=middle;whiteSpace=wrap;" vertex="1" parent="JuJ1iAeebFtIP4Auxc0E-0">
                    <mxGeometry x="365" y="130" width="155" height="30" as="geometry"/>
                </mxCell>
                <mxCell id="JuJ1iAeebFtIP4Auxc0E-8" value="" style="endArrow=classic;html=1;" edge="1" parent="JuJ1iAeebFtIP4Auxc0E-0">
                    <mxGeometry width="50" height="50" relative="1" as="geometry">
                        <mxPoint x="270" y="64.41" as="sourcePoint"/>
                        <mxPoint x="340" y="64.41" as="targetPoint"/>
                    </mxGeometry>
                </mxCell>
                <mxCell id="JuJ1iAeebFtIP4Auxc0E-9" value="Справочная информация" style="swimlane;swimlaneLine=0;" vertex="1" parent="AKtoRm2hV_1FblbGZRJF-1">
                    <mxGeometry x="640" y="-1560" width="510" height="280" as="geometry">
                        <mxRectangle x="640" y="-1560" width="180" height="23" as="alternateBounds"/>
                    </mxGeometry>
                </mxCell>
                <mxCell id="JuJ1iAeebFtIP4Auxc0E-10" value="&lt;h1 style=&quot;font-size: 14px&quot;&gt;&lt;font style=&quot;font-size: 14px&quot;&gt;Границы процесса&lt;/font&gt;&lt;/h1&gt;&lt;div style=&quot;font-size: 14px&quot;&gt;&lt;font style=&quot;font-size: 14px&quot;&gt;&lt;b style=&quot;font-size: 14px&quot;&gt;От&lt;/b&gt; расчёта потребности&lt;/font&gt;&lt;/div&gt;&lt;div style=&quot;font-size: 14px&quot;&gt;&lt;font style=&quot;font-size: 14px&quot;&gt;&lt;b style=&quot;font-size: 14px&quot;&gt;До&lt;/b&gt; поставки товара на склад&lt;/font&gt;&lt;/div&gt;&lt;div style=&quot;font-size: 14px&quot;&gt;&lt;font style=&quot;font-size: 14px&quot;&gt;&lt;br style=&quot;font-size: 14px&quot;&gt;&lt;/font&gt;&lt;/div&gt;&lt;div style=&quot;font-size: 14px&quot;&gt;&lt;font style=&quot;font-size: 14px&quot;&gt;&lt;b style=&quot;font-size: 14px&quot;&gt;Владельцы процесса:&lt;/b&gt;&lt;/font&gt;&lt;/div&gt;&lt;div style=&quot;font-size: 14px&quot;&gt;&lt;font style=&quot;font-size: 14px&quot;&gt;Дирекция по маркетингу&lt;/font&gt;&lt;/div&gt;&lt;div style=&quot;font-size: 14px&quot;&gt;&lt;font style=&quot;font-size: 14px&quot;&gt;&lt;br style=&quot;font-size: 14px&quot;&gt;&lt;/font&gt;&lt;/div&gt;&lt;div style=&quot;font-size: 14px&quot;&gt;&lt;font style=&quot;font-size: 14px&quot;&gt;&lt;b style=&quot;font-size: 14px&quot;&gt;Уровень процесса: 2&lt;/b&gt;&lt;/font&gt;&lt;/div&gt;&lt;div style=&quot;font-size: 14px&quot;&gt;&lt;font style=&quot;font-size: 14px&quot;&gt;&lt;br style=&quot;font-size: 14px&quot;&gt;&lt;/font&gt;&lt;/div&gt;" style="text;html=1;strokeColor=none;fillColor=none;spacing=5;spacingTop=-20;whiteSpace=wrap;overflow=hidden;rounded=0;fontSize=14;" vertex="1" parent="JuJ1iAeebFtIP4Auxc0E-9">
                    <mxGeometry x="10" y="30" width="190" height="160" as="geometry"/>
                </mxCell>
                <mxCell id="JuJ1iAeebFtIP4Auxc0E-11" value="&lt;h1 style=&quot;font-size: 14px&quot;&gt;&lt;font style=&quot;font-size: 14px&quot;&gt;Участники процесса&lt;/font&gt;&lt;/h1&gt;&lt;div style=&quot;font-size: 10px&quot;&gt;&lt;ul&gt;&lt;li&gt;&lt;b&gt;Дирекиця по маркетингу&lt;/b&gt;&lt;/li&gt;&lt;li&gt;&lt;b&gt;Коммерческая дирекция&lt;/b&gt;&lt;/li&gt;&lt;li&gt;&lt;b&gt;Управление транспортной логистики&lt;/b&gt;&lt;/li&gt;&lt;li&gt;&lt;b&gt;Управление складской логистики&lt;/b&gt;&lt;/li&gt;&lt;li&gt;&lt;b&gt;Управление развития бизнес-продуктов&lt;/b&gt;&lt;/li&gt;&lt;li&gt;&lt;b&gt;Финансовая дирекция&lt;/b&gt;&lt;br&gt;&lt;/li&gt;&lt;li&gt;&lt;b&gt;Поставщики&lt;/b&gt;&lt;/li&gt;&lt;li&gt;&lt;b&gt;&quot;Лада-имидж&quot;&lt;/b&gt;&lt;/li&gt;&lt;/ul&gt;&lt;/div&gt;" style="text;html=1;strokeColor=none;fillColor=none;spacing=5;spacingTop=-20;whiteSpace=wrap;overflow=hidden;rounded=0;fontSize=14;" vertex="1" parent="JuJ1iAeebFtIP4Auxc0E-9">
                    <mxGeometry x="280" y="30" width="190" height="230" as="geometry"/>
                </mxCell>
                <mxCell id="JuJ1iAeebFtIP4Auxc0E-12" value="&lt;h1&gt;Бизнес-процесс закупки товаров ТК Альфа: 4.1. Организация и контроль поставок&lt;/h1&gt;" style="text;html=1;strokeColor=none;fillColor=none;spacing=5;spacingTop=-20;whiteSpace=wrap;overflow=hidden;" vertex="1" parent="AKtoRm2hV_1FblbGZRJF-1">
                    <mxGeometry x="40" y="-1640" width="1130" height="60" as="geometry"/>
                </mxCell>
                <mxCell id="WMJrXjLvtnDzXWP0-yAw-0" value="Расчет потребности и подготовка заказа поставщику" style="rounded=0;whiteSpace=wrap;html=1;" vertex="1" parent="AKtoRm2hV_1FblbGZRJF-1">
                    <mxGeometry x="137" y="-1230" width="120" height="60" as="geometry"/>
                </mxCell>
                <mxCell id="WMJrXjLvtnDzXWP0-yAw-1" value="Отправка заказа поставщику и получение обратной связи" style="rounded=0;whiteSpace=wrap;html=1;" vertex="1" parent="AKtoRm2hV_1FblbGZRJF-1">
                    <mxGeometry x="327" y="-1200" width="120" height="60" as="geometry"/>
                </mxCell>
                <mxCell id="WMJrXjLvtnDzXWP0-yAw-3" value="Согласование заказа и условий поставки" style="rounded=0;whiteSpace=wrap;html=1;" vertex="1" parent="AKtoRm2hV_1FblbGZRJF-1">
                    <mxGeometry x="542" y="-1140" width="120" height="60" as="geometry"/>
                </mxCell>
                <mxCell id="WMJrXjLvtnDzXWP0-yAw-4" value="Оплата заказа" style="rounded=0;whiteSpace=wrap;html=1;" vertex="1" parent="AKtoRm2hV_1FblbGZRJF-1">
                    <mxGeometry x="737" y="-1100" width="120" height="60" as="geometry"/>
                </mxCell>
                <mxCell id="WMJrXjLvtnDzXWP0-yAw-5" value="Самовывоз товара от поставщика или доставка товара на склад&amp;nbsp;" style="rounded=0;whiteSpace=wrap;html=1;" vertex="1" parent="AKtoRm2hV_1FblbGZRJF-1">
                    <mxGeometry x="912" y="-1040" width="120" height="60" as="geometry"/>
                </mxCell>
                <mxCell id="WMJrXjLvtnDzXWP0-yAw-6" value="Приемка товара на складе" style="rounded=0;whiteSpace=wrap;html=1;" vertex="1" parent="AKtoRm2hV_1FblbGZRJF-1">
                    <mxGeometry x="1087" y="-960" width="120" height="60" as="geometry"/>
                </mxCell>
                <mxCell id="WMJrXjLvtnDzXWP0-yAw-7" value="Заказ&lt;br&gt;поставщику" style="endArrow=classic;html=1;exitX=1;exitY=0.5;exitDx=0;exitDy=0;entryX=0;entryY=0.5;entryDx=0;entryDy=0;" edge="1" parent="AKtoRm2hV_1FblbGZRJF-1" source="WMJrXjLvtnDzXWP0-yAw-0" target="WMJrXjLvtnDzXWP0-yAw-1">
                    <mxGeometry width="50" height="50" relative="1" as="geometry">
                        <mxPoint x="577" y="-1180" as="sourcePoint"/>
                        <mxPoint x="627" y="-1230" as="targetPoint"/>
                        <Array as="points">
                            <mxPoint x="287" y="-1200"/>
                            <mxPoint x="297" y="-1170"/>
                        </Array>
                    </mxGeometry>
                </mxCell>
                <mxCell id="WMJrXjLvtnDzXWP0-yAw-8" value="Подтверждение&lt;br&gt;&amp;nbsp;заказа" style="endArrow=classic;html=1;exitX=1;exitY=0.5;exitDx=0;exitDy=0;entryX=0.017;entryY=0.633;entryDx=0;entryDy=0;entryPerimeter=0;" edge="1" parent="AKtoRm2hV_1FblbGZRJF-1" source="WMJrXjLvtnDzXWP0-yAw-1" target="WMJrXjLvtnDzXWP0-yAw-3">
                    <mxGeometry x="0.0404" y="4" width="50" height="50" relative="1" as="geometry">
                        <mxPoint x="577" y="-1180" as="sourcePoint"/>
                        <mxPoint x="627" y="-1230" as="targetPoint"/>
                        <Array as="points">
                            <mxPoint x="487" y="-1170"/>
                            <mxPoint x="487" y="-1102"/>
                        </Array>
                        <mxPoint as="offset"/>
                    </mxGeometry>
                </mxCell>
                <mxCell id="WMJrXjLvtnDzXWP0-yAw-9" value="Заказ &lt;br&gt;согласован" style="endArrow=classic;html=1;exitX=1;exitY=0.5;exitDx=0;exitDy=0;entryX=0;entryY=0.75;entryDx=0;entryDy=0;" edge="1" parent="AKtoRm2hV_1FblbGZRJF-1" source="WMJrXjLvtnDzXWP0-yAw-3" target="WMJrXjLvtnDzXWP0-yAw-4">
                    <mxGeometry y="-10" width="50" height="50" relative="1" as="geometry">
                        <mxPoint x="577" y="-1180" as="sourcePoint"/>
                        <mxPoint x="627" y="-1230" as="targetPoint"/>
                        <Array as="points">
                            <mxPoint x="707" y="-1110"/>
                            <mxPoint x="707" y="-1055"/>
                        </Array>
                        <mxPoint as="offset"/>
                    </mxGeometry>
                </mxCell>
                <mxCell id="WMJrXjLvtnDzXWP0-yAw-10" value="Документы &lt;br&gt;на товар" style="endArrow=classic;html=1;exitX=1;exitY=0.5;exitDx=0;exitDy=0;entryX=0;entryY=0.75;entryDx=0;entryDy=0;" edge="1" parent="AKtoRm2hV_1FblbGZRJF-1" source="WMJrXjLvtnDzXWP0-yAw-4" target="WMJrXjLvtnDzXWP0-yAw-5">
                    <mxGeometry width="50" height="50" relative="1" as="geometry">
                        <mxPoint x="692" y="-1180" as="sourcePoint"/>
                        <mxPoint x="742" y="-1230" as="targetPoint"/>
                        <Array as="points">
                            <mxPoint x="877" y="-1070"/>
                            <mxPoint x="877" y="-995"/>
                        </Array>
                    </mxGeometry>
                </mxCell>
                <mxCell id="WMJrXjLvtnDzXWP0-yAw-11" value="Товар &lt;br&gt;доставлен" style="endArrow=classic;html=1;exitX=0.992;exitY=0.367;exitDx=0;exitDy=0;exitPerimeter=0;entryX=0;entryY=0.75;entryDx=0;entryDy=0;" edge="1" parent="AKtoRm2hV_1FblbGZRJF-1" source="WMJrXjLvtnDzXWP0-yAw-5" target="WMJrXjLvtnDzXWP0-yAw-6">
                    <mxGeometry width="50" height="50" relative="1" as="geometry">
                        <mxPoint x="692" y="-1180" as="sourcePoint"/>
                        <mxPoint x="742" y="-1230" as="targetPoint"/>
                        <Array as="points">
                            <mxPoint x="1052" y="-1018"/>
                            <mxPoint x="1052" y="-915"/>
                        </Array>
                    </mxGeometry>
                </mxCell>
                <mxCell id="WMJrXjLvtnDzXWP0-yAw-14" value="" style="endArrow=classic;html=1;exitX=1.017;exitY=0.65;exitDx=0;exitDy=0;exitPerimeter=0;" edge="1" parent="AKtoRm2hV_1FblbGZRJF-1">
                    <mxGeometry width="50" height="50" relative="1" as="geometry">
                        <mxPoint x="1209.04" y="-909" as="sourcePoint"/>
                        <mxPoint x="1287" y="-909" as="targetPoint"/>
                    </mxGeometry>
                </mxCell>
                <mxCell id="WMJrXjLvtnDzXWP0-yAw-15" value="Складские&lt;br&gt;&amp;nbsp;остатки" style="edgeLabel;html=1;align=center;verticalAlign=middle;resizable=0;points=[];" vertex="1" connectable="0" parent="WMJrXjLvtnDzXWP0-yAw-14">
                    <mxGeometry x="0.3761" y="-1" relative="1" as="geometry">
                        <mxPoint x="-21" as="offset"/>
                    </mxGeometry>
                </mxCell>
                <mxCell id="WMJrXjLvtnDzXWP0-yAw-17" value="" style="endArrow=classic;html=1;entryX=0;entryY=0.25;entryDx=0;entryDy=0;" edge="1" parent="AKtoRm2hV_1FblbGZRJF-1" target="WMJrXjLvtnDzXWP0-yAw-0">
                    <mxGeometry width="50" height="50" relative="1" as="geometry">
                        <mxPoint x="40" y="-1215" as="sourcePoint"/>
                        <mxPoint x="580" y="-1150" as="targetPoint"/>
                    </mxGeometry>
                </mxCell>
                <mxCell id="WMJrXjLvtnDzXWP0-yAw-18" value="Статистика продаж" style="edgeLabel;html=1;align=center;verticalAlign=middle;resizable=0;points=[];" vertex="1" connectable="0" parent="WMJrXjLvtnDzXWP0-yAw-17">
                    <mxGeometry x="-0.5429" y="-3" relative="1" as="geometry">
                        <mxPoint x="28" as="offset"/>
                    </mxGeometry>
                </mxCell>
                <mxCell id="WMJrXjLvtnDzXWP0-yAw-19" value="" style="endArrow=classic;html=1;entryX=0.017;entryY=0.617;entryDx=0;entryDy=0;entryPerimeter=0;" edge="1" parent="AKtoRm2hV_1FblbGZRJF-1" target="WMJrXjLvtnDzXWP0-yAw-0">
                    <mxGeometry width="50" height="50" relative="1" as="geometry">
                        <mxPoint x="40" y="-1193" as="sourcePoint"/>
                        <mxPoint x="580" y="-1150" as="targetPoint"/>
                    </mxGeometry>
                </mxCell>
                <mxCell id="WMJrXjLvtnDzXWP0-yAw-20" value="Заказ покупателя" style="edgeLabel;html=1;align=center;verticalAlign=middle;resizable=0;points=[];" vertex="1" connectable="0" parent="WMJrXjLvtnDzXWP0-yAw-19">
                    <mxGeometry x="-0.2819" y="2" relative="1" as="geometry">
                        <mxPoint as="offset"/>
                    </mxGeometry>
                </mxCell>
                <mxCell id="BUozpIWfP8sS-PIeyukR-0" value="" style="endArrow=classic;html=1;entryX=0.5;entryY=0;entryDx=0;entryDy=0;" edge="1" parent="AKtoRm2hV_1FblbGZRJF-1">
                    <mxGeometry width="50" height="50" relative="1" as="geometry">
                        <mxPoint x="386.5" y="-1270" as="sourcePoint"/>
                        <mxPoint x="386.5" y="-1200" as="targetPoint"/>
                    </mxGeometry>
                </mxCell>
                <mxCell id="BUozpIWfP8sS-PIeyukR-1" value="Регламенты и&lt;br&gt;&amp;nbsp;инструкции ТК Альфа" style="edgeLabel;html=1;align=center;verticalAlign=middle;resizable=0;points=[];" vertex="1" connectable="0" parent="BUozpIWfP8sS-PIeyukR-0">
                    <mxGeometry x="0.5556" y="3" relative="1" as="geometry">
                        <mxPoint x="-3" y="-38" as="offset"/>
                    </mxGeometry>
                </mxCell>
                <mxCell id="BUozpIWfP8sS-PIeyukR-2" value="" style="endArrow=classic;html=1;entryX=0.5;entryY=0;entryDx=0;entryDy=0;" edge="1" parent="AKtoRm2hV_1FblbGZRJF-1" target="WMJrXjLvtnDzXWP0-yAw-0">
                    <mxGeometry width="50" height="50" relative="1" as="geometry">
                        <mxPoint x="387" y="-1270" as="sourcePoint"/>
                        <mxPoint x="537" y="-1150" as="targetPoint"/>
                        <Array as="points">
                            <mxPoint x="197" y="-1270"/>
                        </Array>
                    </mxGeometry>
                </mxCell>
                <mxCell id="BUozpIWfP8sS-PIeyukR-3" value="" style="endArrow=classic;html=1;entryX=0.5;entryY=0;entryDx=0;entryDy=0;" edge="1" parent="AKtoRm2hV_1FblbGZRJF-1" target="WMJrXjLvtnDzXWP0-yAw-3">
                    <mxGeometry width="50" height="50" relative="1" as="geometry">
                        <mxPoint x="387" y="-1270" as="sourcePoint"/>
                        <mxPoint x="537" y="-1150" as="targetPoint"/>
                        <Array as="points">
                            <mxPoint x="602" y="-1270"/>
                        </Array>
                    </mxGeometry>
                </mxCell>
                <mxCell id="tXTtiHeOz7i54AfDQKZa-0" value="" style="endArrow=classic;html=1;entryX=0.5;entryY=0;entryDx=0;entryDy=0;" edge="1" parent="AKtoRm2hV_1FblbGZRJF-1">
                    <mxGeometry width="50" height="50" relative="1" as="geometry">
                        <mxPoint x="797" y="-1270" as="sourcePoint"/>
                        <mxPoint x="796.5" y="-1100" as="targetPoint"/>
                    </mxGeometry>
                </mxCell>
                <mxCell id="tXTtiHeOz7i54AfDQKZa-1" value="Законодательные акты и &lt;br&gt;нормативные документы" style="edgeLabel;html=1;align=center;verticalAlign=middle;resizable=0;points=[];" vertex="1" connectable="0" parent="tXTtiHeOz7i54AfDQKZa-0">
                    <mxGeometry x="0.5556" y="3" relative="1" as="geometry">
                        <mxPoint x="-3" y="-112" as="offset"/>
                    </mxGeometry>
                </mxCell>
                <mxCell id="tXTtiHeOz7i54AfDQKZa-2" value="" style="endArrow=classic;html=1;entryX=0.5;entryY=0;entryDx=0;entryDy=0;" edge="1" parent="AKtoRm2hV_1FblbGZRJF-1">
                    <mxGeometry width="50" height="50" relative="1" as="geometry">
                        <mxPoint x="972" y="-1270" as="sourcePoint"/>
                        <mxPoint x="971.5" y="-1040" as="targetPoint"/>
                    </mxGeometry>
                </mxCell>
                <mxCell id="tXTtiHeOz7i54AfDQKZa-3" value="Регламенты и&lt;br&gt;&amp;nbsp;инструкции ТК Альфа" style="edgeLabel;html=1;align=center;verticalAlign=middle;resizable=0;points=[];" vertex="1" connectable="0" parent="tXTtiHeOz7i54AfDQKZa-2">
                    <mxGeometry x="0.5556" y="3" relative="1" as="geometry">
                        <mxPoint x="-3" y="-159" as="offset"/>
                    </mxGeometry>
                </mxCell>
                <mxCell id="tXTtiHeOz7i54AfDQKZa-4" value="" style="endArrow=classic;html=1;entryX=0.75;entryY=0;entryDx=0;entryDy=0;" edge="1" parent="AKtoRm2hV_1FblbGZRJF-1" target="WMJrXjLvtnDzXWP0-yAw-4">
                    <mxGeometry width="50" height="50" relative="1" as="geometry">
                        <mxPoint x="977" y="-1230" as="sourcePoint"/>
                        <mxPoint x="907" y="-1150" as="targetPoint"/>
                        <Array as="points">
                            <mxPoint x="827" y="-1230"/>
                        </Array>
                    </mxGeometry>
                </mxCell>
                <mxCell id="tXTtiHeOz7i54AfDQKZa-5" value="" style="endArrow=classic;html=1;entryX=0.5;entryY=0;entryDx=0;entryDy=0;" edge="1" parent="AKtoRm2hV_1FblbGZRJF-1" target="WMJrXjLvtnDzXWP0-yAw-6">
                    <mxGeometry width="50" height="50" relative="1" as="geometry">
                        <mxPoint x="977" y="-1230" as="sourcePoint"/>
                        <mxPoint x="907" y="-1150" as="targetPoint"/>
                        <Array as="points">
                            <mxPoint x="1147" y="-1230"/>
                        </Array>
                    </mxGeometry>
                </mxCell>
                <mxCell id="tXTtiHeOz7i54AfDQKZa-6" value="УСЛ" style="endArrow=block;html=1;entryX=0.25;entryY=1;entryDx=0;entryDy=0;endFill=0;" edge="1" parent="AKtoRm2hV_1FblbGZRJF-1">
                    <mxGeometry width="50" height="50" relative="1" as="geometry">
                        <mxPoint x="1145" y="-840" as="sourcePoint"/>
                        <mxPoint x="1145" y="-900" as="targetPoint"/>
                        <Array as="points">
                            <mxPoint x="1145" y="-870"/>
                        </Array>
                    </mxGeometry>
                </mxCell>
                <mxCell id="tXTtiHeOz7i54AfDQKZa-7" value="" style="endArrow=block;html=1;entryX=0.5;entryY=1;entryDx=0;entryDy=0;endFill=0;" edge="1" parent="AKtoRm2hV_1FblbGZRJF-1">
                    <mxGeometry width="50" height="50" relative="1" as="geometry">
                        <mxPoint x="941" y="-840" as="sourcePoint"/>
                        <mxPoint x="941" y="-980" as="targetPoint"/>
                    </mxGeometry>
                </mxCell>
                <mxCell id="tXTtiHeOz7i54AfDQKZa-8" value="УТЛ" style="edgeLabel;html=1;align=center;verticalAlign=middle;resizable=0;points=[];" vertex="1" connectable="0" parent="tXTtiHeOz7i54AfDQKZa-7">
                    <mxGeometry x="-0.2308" y="-1" relative="1" as="geometry">
                        <mxPoint x="-1" y="34" as="offset"/>
                    </mxGeometry>
                </mxCell>
                <mxCell id="tXTtiHeOz7i54AfDQKZa-9" value="Поставщик" style="endArrow=block;html=1;entryX=0.75;entryY=1;entryDx=0;entryDy=0;endFill=0;" edge="1" parent="AKtoRm2hV_1FblbGZRJF-1" target="WMJrXjLvtnDzXWP0-yAw-5">
                    <mxGeometry x="-0.4286" width="50" height="50" relative="1" as="geometry">
                        <mxPoint x="1002" y="-840" as="sourcePoint"/>
                        <mxPoint x="857" y="-1150" as="targetPoint"/>
                        <mxPoint as="offset"/>
                    </mxGeometry>
                </mxCell>
                <mxCell id="tXTtiHeOz7i54AfDQKZa-10" value="" style="endArrow=block;html=1;entryX=0.5;entryY=1;entryDx=0;entryDy=0;endFill=0;" edge="1" parent="AKtoRm2hV_1FblbGZRJF-1" target="WMJrXjLvtnDzXWP0-yAw-4">
                    <mxGeometry width="50" height="50" relative="1" as="geometry">
                        <mxPoint x="797" y="-840" as="sourcePoint"/>
                        <mxPoint x="857" y="-1150" as="targetPoint"/>
                    </mxGeometry>
                </mxCell>
                <mxCell id="tXTtiHeOz7i54AfDQKZa-11" value="ФД" style="edgeLabel;html=1;align=center;verticalAlign=middle;resizable=0;points=[];" vertex="1" connectable="0" parent="tXTtiHeOz7i54AfDQKZa-10">
                    <mxGeometry x="-0.8842" y="2" relative="1" as="geometry">
                        <mxPoint as="offset"/>
                    </mxGeometry>
                </mxCell>
                <mxCell id="tXTtiHeOz7i54AfDQKZa-12" value="ДпМ" style="endArrow=classic;html=1;entryX=0.167;entryY=1;entryDx=0;entryDy=0;entryPerimeter=0;" edge="1" parent="AKtoRm2hV_1FblbGZRJF-1" target="WMJrXjLvtnDzXWP0-yAw-4">
                    <mxGeometry x="-0.8947" width="50" height="50" relative="1" as="geometry">
                        <mxPoint x="757" y="-840" as="sourcePoint"/>
                        <mxPoint x="857" y="-1150" as="targetPoint"/>
                        <mxPoint as="offset"/>
                    </mxGeometry>
                </mxCell>
                <mxCell id="tXTtiHeOz7i54AfDQKZa-13" value="Поставщик" style="endArrow=block;html=1;entryX=0.5;entryY=1;entryDx=0;entryDy=0;endFill=0;" edge="1" parent="AKtoRm2hV_1FblbGZRJF-1" target="WMJrXjLvtnDzXWP0-yAw-3">
                    <mxGeometry x="-0.8333" width="50" height="50" relative="1" as="geometry">
                        <mxPoint x="602" y="-840" as="sourcePoint"/>
                        <mxPoint x="597" y="-980" as="targetPoint"/>
                        <mxPoint as="offset"/>
                    </mxGeometry>
                </mxCell>
                <mxCell id="tXTtiHeOz7i54AfDQKZa-14" value="ДпМ" style="endArrow=classic;html=1;entryX=0.125;entryY=1;entryDx=0;entryDy=0;entryPerimeter=0;" edge="1" parent="AKtoRm2hV_1FblbGZRJF-1" target="WMJrXjLvtnDzXWP0-yAw-3">
                    <mxGeometry x="-0.8947" width="50" height="50" relative="1" as="geometry">
                        <mxPoint x="557" y="-840" as="sourcePoint"/>
                        <mxPoint x="557.04" y="-1030" as="targetPoint"/>
                        <mxPoint as="offset"/>
                    </mxGeometry>
                </mxCell>
                <mxCell id="tXTtiHeOz7i54AfDQKZa-15" value="ДпМ" style="endArrow=classic;html=1;entryX=0.25;entryY=1;entryDx=0;entryDy=0;" edge="1" parent="AKtoRm2hV_1FblbGZRJF-1" target="WMJrXjLvtnDzXWP0-yAw-1">
                    <mxGeometry x="-0.8947" width="50" height="50" relative="1" as="geometry">
                        <mxPoint x="357" y="-840" as="sourcePoint"/>
                        <mxPoint x="357" y="-1080" as="targetPoint"/>
                        <mxPoint as="offset"/>
                    </mxGeometry>
                </mxCell>
                <mxCell id="tXTtiHeOz7i54AfDQKZa-16" value="ДпМ" style="endArrow=classic;html=1;" edge="1" parent="AKtoRm2hV_1FblbGZRJF-1">
                    <mxGeometry x="-0.8947" width="50" height="50" relative="1" as="geometry">
                        <mxPoint x="167" y="-840" as="sourcePoint"/>
                        <mxPoint x="167" y="-1170" as="targetPoint"/>
                        <mxPoint as="offset"/>
                    </mxGeometry>
                </mxCell>
                <mxCell id="tXTtiHeOz7i54AfDQKZa-17" value="ЛИ" style="endArrow=block;html=1;entryX=0.592;entryY=1;entryDx=0;entryDy=0;entryPerimeter=0;endFill=0;" edge="1" parent="AKtoRm2hV_1FblbGZRJF-1" target="WMJrXjLvtnDzXWP0-yAw-0">
                    <mxGeometry x="-0.8788" width="50" height="50" relative="1" as="geometry">
                        <mxPoint x="208" y="-840" as="sourcePoint"/>
                        <mxPoint x="207" y="-1140" as="targetPoint"/>
                        <mxPoint as="offset"/>
                    </mxGeometry>
                </mxCell>
                <mxCell id="tXTtiHeOz7i54AfDQKZa-18" value="КД" style="endArrow=block;html=1;entryX=0.592;entryY=1;entryDx=0;entryDy=0;entryPerimeter=0;endFill=0;" edge="1" parent="AKtoRm2hV_1FblbGZRJF-1">
                    <mxGeometry x="-0.8788" width="50" height="50" relative="1" as="geometry">
                        <mxPoint x="247" y="-840" as="sourcePoint"/>
                        <mxPoint x="247.03999999999996" y="-1170" as="targetPoint"/>
                        <mxPoint as="offset"/>
                    </mxGeometry>
                </mxCell>
                <mxCell id="qkq_CCexb5EJLdzxQWde-1" value="" style="endArrow=classic;html=1;exitX=1;exitY=0.25;exitDx=0;exitDy=0;" edge="1" parent="AKtoRm2hV_1FblbGZRJF-1" source="WMJrXjLvtnDzXWP0-yAw-6">
                    <mxGeometry width="50" height="50" relative="1" as="geometry">
                        <mxPoint x="710" y="-1100" as="sourcePoint"/>
                        <mxPoint x="1290" y="-945" as="targetPoint"/>
                    </mxGeometry>
                </mxCell>
                <mxCell id="qkq_CCexb5EJLdzxQWde-2" value="Прайс-лист&lt;br&gt;&amp;nbsp;ТК Альфа" style="edgeLabel;html=1;align=center;verticalAlign=middle;resizable=0;points=[];" vertex="1" connectable="0" parent="qkq_CCexb5EJLdzxQWde-1">
                    <mxGeometry x="0.2289" y="-2" relative="1" as="geometry">
                        <mxPoint x="-8" as="offset"/>
                    </mxGeometry>
                </mxCell>
            </root>
        </mxGraphModel>
    </diagram>
</mxfile>